/* XPM */
static char * QuitPB_xpm[] = {
"64 40 5 1",
" 	c none",
".	c #000000000000",
"X	c #00000000FFFF",
"o	c #FFFFFFFFFFFF",
"O	c #820782078207",
"                                                                ",
"                                                                ",
"                                                                ",
"                                                                ",
"                                                                ",
"                                                                ",
"                                                                ",
"                                                                ",
"         .............                                          ",
"         .XXXXXXXXXXX.                                          ",
"         .XXXXXXXXXXX.                                          ",
"         .XXXXXXXXXXX.                                          ",
"         .XXXXXXXXXXX.                                          ",
"         .XXXXXXXXXXX.                                          ",
"         .XXXXXXXXXXX.                ..          .             ",
"         .XXXXXXX..XX.               .  .         .  .          ",
"         .XXXXXX.o .X.              .    .           .          ",
"         .XXXXXX.  .X.             .      . .   . . ....        ",
"         .XXXXXXX..XX.             .      . .   . .  .          ",
"         .XXXXXXXXXXX.             .      . .   . .  .          ",
"         .XXXXXXXXXXX.             .      . .   . .  .          ",
"         .XXXXXXXXXXX.             .   .  . .   . .  .          ",
"         .XXXXXXXXXXX.              .   ..  .   . .  .          ",
"         .XXXXXXXXXXX.               .  ..  .. .. .  .          ",
"   .......XXXXXXXXXXX........         ..  .  .. . .   ..        ",
"   OOOOOO.XXXXXXXXXXX.OOOOOOO                                   ",
"   ..........................      ........                     ",
"                                                                ",
"                                                                ",
"                                                                ",
"                                                                ",
"                                                                ",
"                                                                ",
"                                                                ",
"                                                                ",
"                                                                ",
"                                                                ",
"                                                                ",
"                                                                ",
"                                                                "};
