/* XPM */
static char *Camel[] = {
/* width height num_colors chars_per_pixel */
"    32    32        2            1",
/* colors */
". c #ffffff",
"# c #7f7f00",
/* pixels */
"................................",
"................................",
"...................###..........",
".......####......######.........",
"....####.##.....########........",
"....########....#########.......",
"......######..###########.......",
"......#####..#############......",
".....######.##############......",
".....######.###############.....",
".....######################.....",
".....#######################....",
".....#######################....",
"......#######################...",
".......####################.#...",
"........###################.#...",
"........###############.###.#...",
"............#######.###.###.#...",
"............###.###.##...##.....",
"............###.###..#...##.....",
"............##.####..#....#.....",
"............##.###...#....#.....",
"............##.##...#.....#.....",
"............#...#...#.....#.....",
"............#....#..#.....#.....",
"............#.....#.#.....#.....",
"............#.....###.....#.....",
"...........##....##.#....#......",
"...........#..............#.....",
".........###.............#......"
"................................",
"................................",
};
