#define openfile_width 16
#define openfile_height 12
static unsigned char openfile_bits[] = {
   0x00, 0x00, 0xfc, 0x00, 0x02, 0x07, 0x01, 0x08, 0xc1, 0xff, 0xa1, 0xaa,
   0x51, 0x55, 0xa9, 0x2a, 0x55, 0x15, 0xab, 0x0a, 0xff, 0x07, 0x00, 0x00};
