/* XPM */
static char * srcfile_xpm[] = {
"12 12 3 1",
" 	s None	c None",
".	c #000000000000",
"X	c gray91",
" ........   ",
" .XXXXXX.   ",
" .XXXXXX... ",
" .XXXXXXXX. ",
" .XX...XXX. ",
" .X.XXX.XX. ",
" .X.XXXXXX. ",
" .X.XXXXXX. ",
" .XX....XX. ",
" .XXXXXXXX. ",
" .XXXXXXXX. ",
" .......... "};
