/* XPM */
static char *Tk[] = {
/* width height num_colors chars_per_pixel */
"    32    32        2            1",
/* colors */
"# c #008080",
"a c #ff0000",
/* pixels */
"################################",
"################################",
"################################",
"################################",
"################################",
"################################",
"##########aaaaaaaa##############",
"#######aaaaaaaaaaaa#######aa####",
"#####aaaaaaaaaaaaaa######aaa####",
"####aaaaaaaaaaaaaaaa####aaaa####",
"####aaaaaaa######aa####aaaa#####",
"###aaaa#########aaa###aaaa######",
"###aaaa#########aa###aaaa#######",
"######aa#######aa####aaa########",
"##############aaa###aaaa########",
"#############aaa###aaaa##aaa####",
"#############aa####aaa#aaaaa####",
"############aaa###aaa#aaaaaa####",
"###########aaa####aa#aa#aaa#####",
"###########aaa###aa#aa#aaa######",
"##########aaa####aaaaaaaa#aa####",
"##########aaa####aaaaaaa##aa####",
"#########aaaa####aaaaaaaaaa#####",
"#########aaa#####aa##aaaaa######",
"#########aaa##########aa########",
"################################",
"################################",
"################################",
"################################",
"################################",
"################################",
"################################"
};
