#define win.xbm_width 16
#define win.xbm_height 16
static char win.xbm_bits[] = {
   0xff, 0xff, 0x0d, 0xb0, 0xff, 0xff, 0x01, 0x80, 0x01, 0x80, 0x01, 0x80,
   0x01, 0x80, 0x01, 0x80, 0x01, 0x80, 0x01, 0x80, 0x01, 0x80, 0x01, 0x80,
   0x01, 0x80, 0x01, 0x80, 0x01, 0x80, 0xff, 0xff};
