/* XPM */
static char * ColorEditor_xpm[] = {
"48 48 6 1",
" 	c #0000FFFF0000",
".	c #FFFFFFFF0000",
"X	c #FFFF00000000",
"o	c #000000000000",
"O	c #0000FFFFFFFF",
"+	c #00000000FFFF",
"                   . . ......X..XXXXXXXXXXXXXXXX",
"                      . .X.X. X...XX.XXXXXXXXXXX",
"                   .  . .  ... ...XXXXXXXXXXXXXX",
"                .   .    .. .....XX.XXXXXXXXXXXX",
"                    .   .X.X...XXX..XXXXXXXXXXXX",
"                       .. .  ....X...X.XXXXXXXXX",
"                       ..  ..X.. . ..X..XXXXXXXX",
"                          ....  ..X.X..X.XXXXXXX",
"                         ...  .X. X...X...XX.XXX",
"                     .    .. ... XX...XXXX..XXXX",
"      ooo o         ooo.   .  .. .X...X..X.XXXXX",
"    oo   oo          oo.    . .  . .......X.X.XX",
"    oo    o          oo   . . .. ........XX.XXXX",
"   oo         ooo   oo   ooo Xooo.oo..... X XX.X",
"   oo        o  oo  oo  o  oo  ooo o.. . X...X X",
"   oo       oo  oo  oo oo  oo .oo  . X.X.....XX ",
"O  oo     o oo  oo oo  oo  oo oo.  ...  X..... .",
"O O oo   oo oo  o  oo ooo  o. oo     . ... .X..X",
"O OOOooooO   ooo   ooo  ooo   oo  ... ....... X ",
"  O OOO                         .  . ..  ...  ..",
"OOO OOOO OO O                    . .... . . .. .",
" +  O  O   O  O                        .. .. . .",
"   O  OOO  OO                    .    ..   .... ",
"OOOOO    O   OO                  .   ..  .  ... ",
"+OOOO OOOO  OO    O                  ...   .. ..",
" O+OO OO      O                            .    ",
"OOOOOOOOoooooooOOOO  ooo  oo               .... ",
"OO++ OOO ooO OoOO     oo  oo  oo           ..   ",
"+OOOOOOOOooOOOo O O   oo      oo               .",
"++OOO   +oo+oOO O oo oo ooo ooooo  ooo  ooo oo. ",
"+OO O OOoooooO O o  ooo  oo  oo   o  oo  ooo o  ",
"++++ O OooOOoO Ooo  Ooo  oo  oo  oo  oo  oo     ",
"+++OOOO ooOOOoOOooOOooO oo  oo   oo  oo oo      ",
"++++++ Ooo OOoOOooOooo ooo ooo o oo  o  oo      ",
"+++O+++oooooooOOOooOoooOooo ooo  Oooo   oo      ",
"++++++++O++OOOO   O OOOOOOO                     ",
"++O++++O+O+OOOOOOO O O OOOOOO  O                ",
"+++O+++OOO+OO OOOO O   OO  O O O                ",
"++++++++O++O OO OO OO  OOO OO O   O             ",
"+++++++++++++ OOOOOO OOOO OO OO                 ",
"+++++++++++++O+ +O OOOO OOO  OOO OOO            ",
"++++++++++++++ OOOOO O OOOOOOOOOO               ",
"+++++++++++++ ++  OO  +O OOOOO O  O   O         ",
"+++++++++++++++O+++O+O+O OOOOOOOOOO    O        ",
"+++++++++++++O++++O++  O OOO O OOO OO           ",
"++++++++++++++++O+++O+O+OOOO OOOO  O  OO        ",
"+++++++++++++++++++O+++ +++O OOOOOO OO   O      ",
"++++++++++++++++++++++ +++ O OOOOOOOOO          "};

