/* XPM */
static char * QuitPBa_xpm[] = {
"64 40 5 1",
" 	c none",
".	c #820782078207",
"X	c #000000000000",
"o	c #000082070000",
"O	c #00000000FFFF",
"                                                                ",
"                                                                ",
"                            .                                   ",
"                           .                                    ",
"                          .   .X                                ",
"                          .  ...                                ",
"       XXXXXXXXXXXXX      .   X.oo                              ",
"       XX          X          .Xooo                             ",
"       XX          X         oX.ooo  .                          ",
"       XOX      .  X         ooo.oo  .                          ",
"       XOX     .   X .     .. oooo   .                          ",
"       XOOX    .   X  .   .     oo  .                           ",
"       XOOX       XX  .  .                                      ",
"       XOOX      XXXX                                           ",
"       XOOX      XXX   XX             XX          X             ",
"       XOOX  XX   XXX  XX            X  X         X  X          ",
"       XOOX  XXX   XX X             X    X           X          ",
"       XOXX   . XXXXXX             X      X X   X X XXXX        ",
"       XX X ..    XXXX             X      X X   X X  X          ",
"       XX X .  .   XXX             X      X X   X X  X          ",
"       XOXX   ..   XXXXX           X      X X   X X  X          ",
"       XOOX   .  . XX  X XXX       X   X  X X   X X  X          ",
" XXXXXXXOOX     .  XXXXXXXXX        X   XX  X   X X  X          ",
" ......XOOX     . XX....XXX          X  XX  XX XX X  X          ",
" XXXXXXXOOX  .  . XXXXXXXXX           XX  X  XX X X   XX        ",
"        XOX   .   XXXX   X                                      ",
"        XOX   .    XXX             XXXXXXXX                     ",
"         XX .                                                   ",
"         XX .                                                   ",
"            .                                                   ",
"           .                                                    ",
"                                                                ",
"                                                                ",
"                                                                ",
"                                                                ",
"                                                                ",
"                                                                ",
"                                                                ",
"                                                                ",
"                                                                "};
