#define arrowdownwin2_width 9
#define arrowdownwin2_height 13
static char arrowdownwin2_bits[] = {
 0x00,0xfe,0x00,0xfe,0x00,0xfe,0x00,0xfe,0x00,0xfe,0x7c,0xfe,0x38,0xfe,0x10,
 0xfe,0x00,0xfe,0x00,0xfe,0x00,0xfe,0x00,0xfe,0x00,0xfe};
