ply
format ascii 1.0
comment VCGLIB generated
element vertex 406
property float x
property float y
property float z
element face 808
property list uchar int vertex_indices
end_header
0.346418 0.269097 0.844294
0.348440 0.271023 0.844737
0.348050 0.263394 0.844519
0.343994 0.261608 0.845816
0.339318 0.270827 0.846995
0.343923 0.252199 0.849143
0.337258 0.261321 0.847745
0.339885 0.279026 0.849438
0.346975 0.279636 0.847624
0.349921 0.256896 0.846534
0.328635 0.269970 0.850960
0.332992 0.276264 0.850753
0.329582 0.260565 0.850694
0.352411 0.271854 0.848402
0.352834 0.252344 0.849996
0.352943 0.260328 0.848281
0.323503 0.257836 0.853668
0.318910 0.265187 0.854583
0.354361 0.256247 0.850784
0.353559 0.267436 0.854014
0.325162 0.274523 0.853360
0.342300 0.289276 0.856277
0.335530 0.251477 0.852123
0.314173 0.269443 0.857130
0.337208 0.287452 0.856283
0.346438 0.287929 0.853688
0.352759 0.289963 0.856695
0.327565 0.250778 0.854903
0.355355 0.253510 0.853790
0.315244 0.257616 0.856829
0.353417 0.281025 0.852394
0.323247 0.281492 0.857919
0.307786 0.259294 0.859753
0.317944 0.250739 0.858704
0.341747 0.253354 0.853455
0.312069 0.277954 0.861081
0.330901 0.285674 0.857586
0.305125 0.269247 0.861191
0.327728 0.253074 0.857850
0.321166 0.284856 0.861421
0.354517 0.279347 0.859130
0.355203 0.285779 0.857832
0.349072 0.293077 0.859513
0.341335 0.292579 0.861211
0.329425 0.289838 0.862990
0.336047 0.292107 0.862743
0.302343 0.257901 0.862245
0.354034 0.294852 0.863413
0.316552 0.286220 0.865307
0.296532 0.257425 0.864603
0.354988 0.261829 0.859714
0.303732 0.275630 0.863918
0.343970 0.294867 0.864865
0.355184 0.269206 0.858782
0.355836 0.281109 0.863679
0.322188 0.289857 0.866788
0.296880 0.267072 0.864498
0.316819 0.253326 0.861857
0.356768 0.253476 0.860161
0.292262 0.269176 0.866783
0.310978 0.286005 0.867840
0.307448 0.251422 0.862581
0.288811 0.257200 0.867656
0.356421 0.269631 0.863899
0.356436 0.294348 0.865968
0.328097 0.292912 0.868763
0.341029 0.296189 0.869202
0.348839 0.296651 0.865754
0.356758 0.277002 0.867564
0.358446 0.261680 0.870433
0.283457 0.263550 0.869298
0.298833 0.280994 0.869448
0.357467 0.288629 0.864375
0.284008 0.254819 0.869374
0.303316 0.253323 0.866441
0.286015 0.262392 0.867945
0.356845 0.264728 0.867160
0.358116 0.268288 0.869133
0.305797 0.284754 0.869278
0.358871 0.253407 0.866730
0.342412 0.296982 0.871983
0.319142 0.292324 0.873338
0.333111 0.294214 0.869020
0.297053 0.251731 0.866909
0.316929 0.290261 0.870556
0.289295 0.251346 0.869894
0.279174 0.264934 0.871051
0.288657 0.273985 0.869926
0.295591 0.284164 0.873720
0.335729 0.296143 0.872721
0.354710 0.296861 0.868901
0.278856 0.255325 0.871656
0.276261 0.261920 0.872176
0.359587 0.293176 0.870249
0.283680 0.277700 0.874434
0.302534 0.287723 0.874613
0.273208 0.268809 0.874667
0.310426 0.289851 0.873712
0.358876 0.282249 0.871841
0.361464 0.289396 0.873701
0.336512 0.297060 0.875654
0.272596 0.252121 0.875827
0.266655 0.256417 0.877774
0.281998 0.251485 0.872726
0.360165 0.266842 0.873075
0.360001 0.295339 0.874653
0.323907 0.294357 0.875876
0.329390 0.296243 0.878334
0.348966 0.297141 0.876186
0.292529 0.253397 0.872407
0.360803 0.259273 0.874180
0.287789 0.282300 0.875958
0.334054 0.297157 0.878855
0.361314 0.283454 0.876221
0.312094 0.292178 0.877872
0.357834 0.297166 0.879010
0.266632 0.253283 0.879588
0.363148 0.262327 0.879898
0.362671 0.266026 0.876911
0.280788 0.282688 0.879719
0.291942 0.286505 0.878569
0.307180 0.292233 0.880182
0.318933 0.294235 0.879168
0.280496 0.253206 0.876449
0.269043 0.272262 0.878414
0.361262 0.270707 0.878061
0.362165 0.294435 0.879719
0.299854 0.289992 0.880049
0.265519 0.266684 0.879199
0.262826 0.254487 0.884250
0.263077 0.265575 0.882251
0.308044 0.292999 0.882790
0.325063 0.296042 0.883964
0.362284 0.253456 0.875485
0.266803 0.276358 0.882948
0.364128 0.286542 0.879804
0.293338 0.289512 0.882645
0.274075 0.281649 0.882311
0.320825 0.295426 0.882469
0.364341 0.267419 0.882158
0.363154 0.277880 0.881178
0.296970 0.291324 0.885046
0.354387 0.296917 0.882134
0.365321 0.289949 0.882816
0.279864 0.286024 0.884483
0.313995 0.294349 0.882199
0.334250 0.297169 0.885671
0.349369 0.297054 0.884345
0.365439 0.259232 0.882586
0.309004 0.294178 0.886007
0.298441 0.293541 0.886376
0.263718 0.275197 0.886460
0.269592 0.283203 0.887502
0.287450 0.288318 0.883896
0.316160 0.294682 0.885151
0.291450 0.291240 0.888036
0.360047 0.294066 0.886133
0.342893 0.297193 0.885973
0.352538 0.295962 0.886639
0.257637 0.253821 0.888208
0.261482 0.266515 0.886136
0.336956 0.297206 0.885170
0.368675 0.263498 0.888214
0.366924 0.264834 0.885134
0.366037 0.282180 0.884371
0.275064 0.287619 0.889870
0.296735 0.292649 0.888707
0.301552 0.292327 0.884595
0.367060 0.253491 0.882975
0.256521 0.264795 0.888697
0.265105 0.280393 0.890801
0.324522 0.296733 0.888203
0.366795 0.277620 0.886552
0.343695 0.295296 0.890661
0.255681 0.258684 0.890861
0.262299 0.276259 0.892023
0.282900 0.290010 0.890249
0.365556 0.289796 0.888455
0.303483 0.294392 0.889893
0.327276 0.296270 0.885828
0.347532 0.296266 0.887846
0.348607 0.295808 0.889714
0.314673 0.294991 0.890519
0.331711 0.296646 0.890856
0.256953 0.262274 0.891887
0.292163 0.292195 0.891200
0.331588 0.295779 0.891030
0.369426 0.280230 0.889868
0.351284 0.293466 0.891885
0.338294 0.294801 0.892959
0.339371 0.296297 0.889803
0.371211 0.257195 0.889615
0.371029 0.272661 0.892222
0.319356 0.295451 0.889421
0.252400 0.258146 0.893643
0.272393 0.288687 0.894991
0.279711 0.291093 0.895700
0.287473 0.292602 0.895737
0.299982 0.293909 0.895966
0.371897 0.267272 0.894003
0.351038 0.290919 0.895916
0.370968 0.251658 0.892392
0.252109 0.266333 0.897336
0.264408 0.281352 0.897700
0.330449 0.295063 0.894739
0.263471 0.253398 0.886250
0.257720 0.271023 0.896848
0.367338 0.286051 0.892519
0.294659 0.293631 0.894432
0.358837 0.290875 0.892814
0.319884 0.294960 0.893619
0.251239 0.260664 0.897198
0.367801 0.282814 0.895618
0.304696 0.294521 0.895810
0.257789 0.275549 0.894770
0.292878 0.293535 0.897286
0.328622 0.292852 0.898835
0.323019 0.294618 0.896317
0.367917 0.251848 0.895001
0.252600 0.253087 0.897287
0.297929 0.295214 0.900010
0.280471 0.292738 0.899476
0.341515 0.292263 0.897119
0.317677 0.294246 0.897508
0.248110 0.256660 0.900426
0.300893 0.293927 0.899627
0.316033 0.292889 0.901779
0.358552 0.250911 0.901428
0.364122 0.253194 0.895042
0.355130 0.286565 0.899399
0.277180 0.292494 0.902075
0.295378 0.295179 0.897116
0.311367 0.294255 0.897949
0.369993 0.256996 0.898188
0.246116 0.262517 0.901585
0.252094 0.271329 0.903020
0.259717 0.280507 0.900891
0.360264 0.286886 0.897142
0.370381 0.275166 0.898000
0.283364 0.292655 0.903211
0.371299 0.265800 0.898794
0.257583 0.274524 0.901186
0.271914 0.288321 0.907302
0.274591 0.290666 0.903081
0.275430 0.292236 0.900117
0.294035 0.292880 0.902209
0.307030 0.293266 0.901828
0.348100 0.287002 0.901857
0.330325 0.290728 0.902809
0.299167 0.292536 0.905667
0.305444 0.295076 0.900752
0.259353 0.278302 0.906236
0.355662 0.277332 0.905472
0.280181 0.292270 0.906737
0.257834 0.253243 0.894241
0.292648 0.293217 0.901599
0.245655 0.268927 0.905321
0.341752 0.289703 0.900882
0.350282 0.250303 0.905720
0.340431 0.287192 0.904545
0.312763 0.291687 0.904954
0.276156 0.290922 0.908333
0.334949 0.253442 0.903052
0.319668 0.290390 0.906039
0.262297 0.283032 0.905501
0.330590 0.287734 0.906807
0.289078 0.292424 0.906621
0.247262 0.259904 0.907479
0.349377 0.275488 0.908909
0.350699 0.253386 0.902935
0.329059 0.253788 0.905104
0.249724 0.254596 0.910207
0.360731 0.259451 0.904694
0.245602 0.270907 0.910721
0.252008 0.273204 0.907582
0.359682 0.271132 0.905397
0.267240 0.284027 0.906092
0.340649 0.253223 0.907839
0.325072 0.253787 0.907302
0.263453 0.283149 0.911486
0.300739 0.291766 0.908253
0.246777 0.267061 0.914199
0.337902 0.283592 0.908705
0.316686 0.288657 0.909697
0.319700 0.253409 0.906880
0.252981 0.253726 0.905119
0.277125 0.290409 0.912275
0.280025 0.291521 0.911383
0.337481 0.250595 0.911818
0.343715 0.250295 0.908886
0.353012 0.259710 0.908397
0.348589 0.270122 0.910699
0.331636 0.283279 0.910899
0.270682 0.283973 0.914351
0.325005 0.287001 0.909403
0.288133 0.292292 0.910195
0.294902 0.291442 0.910235
0.248129 0.260260 0.913305
0.326562 0.281285 0.914285
0.308698 0.289538 0.910636
0.249402 0.274369 0.910972
0.336939 0.273470 0.914543
0.258151 0.279436 0.912266
0.299358 0.290684 0.911071
0.276179 0.288217 0.915119
0.290612 0.291229 0.912182
0.294339 0.290866 0.912955
0.308007 0.288002 0.913126
0.329576 0.253166 0.912355
0.298417 0.290251 0.913755
0.285841 0.291498 0.913339
0.257820 0.253443 0.915004
0.342492 0.258119 0.912868
0.341835 0.268179 0.913358
0.253872 0.275192 0.915389
0.264448 0.278825 0.914411
0.266156 0.283164 0.917357
0.318079 0.284202 0.914627
0.331930 0.250962 0.914625
0.248066 0.273872 0.917464
0.251463 0.255090 0.917541
0.298421 0.286865 0.919413
0.333717 0.257817 0.916616
0.260436 0.277326 0.919197
0.320477 0.277015 0.918893
0.280372 0.290719 0.914451
0.288759 0.289661 0.915700
0.305416 0.252834 0.914548
0.303212 0.286442 0.917401
0.300047 0.288483 0.916140
0.278073 0.289090 0.916154
0.293625 0.289056 0.916379
0.280732 0.289291 0.915824
0.249563 0.267593 0.921741
0.325594 0.251217 0.917339
0.287423 0.253397 0.916161
0.307567 0.282501 0.919804
0.278546 0.288405 0.918638
0.293915 0.288203 0.919088
0.281462 0.288675 0.919297
0.312251 0.284105 0.916756
0.273235 0.283757 0.917994
0.285207 0.289555 0.918705
0.289378 0.288093 0.920812
0.320404 0.251592 0.919616
0.331877 0.268012 0.917694
0.299779 0.284971 0.920021
0.290228 0.252714 0.920072
0.316051 0.253058 0.916283
0.327378 0.259240 0.919541
0.311595 0.275448 0.923128
0.253959 0.274888 0.921784
0.267859 0.276800 0.921282
0.269175 0.280644 0.922918
0.293988 0.284968 0.921942
0.254435 0.255010 0.923245
0.315659 0.251626 0.922047
0.319082 0.256650 0.922662
0.321369 0.268568 0.921597
0.251183 0.273459 0.924089
0.261332 0.274607 0.923320
0.281794 0.284255 0.923649
0.286985 0.287574 0.922513
0.261937 0.253538 0.926203
0.302967 0.278931 0.924335
0.252039 0.265561 0.925694
0.257456 0.271844 0.927487
0.276404 0.283640 0.920866
0.309084 0.252419 0.923500
0.256963 0.254516 0.926870
0.271156 0.276832 0.927738
0.310260 0.250786 0.924521
0.310917 0.257247 0.926290
0.313769 0.267232 0.925081
0.270848 0.269771 0.927654
0.275510 0.277391 0.925748
0.282984 0.279618 0.927943
0.303860 0.268438 0.929034
0.297050 0.281347 0.924355
0.290833 0.281088 0.926702
0.259518 0.255094 0.931034
0.254340 0.267239 0.929947
0.264102 0.270991 0.927770
0.272178 0.253185 0.929202
0.296971 0.253295 0.927161
0.269607 0.262678 0.931671
0.292501 0.273413 0.931405
0.263528 0.261669 0.931258
0.303912 0.251893 0.927610
0.276659 0.252998 0.932240
0.280112 0.271150 0.930894
0.302728 0.256181 0.929733
0.275496 0.262819 0.933740
0.257030 0.264095 0.932017
0.273855 0.269828 0.932419
0.265001 0.253400 0.930394
0.269543 0.256154 0.933258
0.274598 0.255906 0.933571
0.280374 0.265872 0.932034
0.284505 0.253407 0.930851
0.295719 0.252685 0.931801
0.283864 0.251803 0.932095
0.298704 0.265276 0.931422
0.290098 0.266627 0.934381
0.281556 0.257780 0.932774
0.293622 0.256956 0.933781
3 400 399 401
3 400 401 404
3 57 33 61
3 33 32 61
3 74 61 83
3 61 49 83
3 318 308 334
3 322 318 334
3 83 85 109
3 83 62 85
3 5 22 34
3 5 6 22
3 277 288 289
3 289 288 312
3 148 133 168
3 168 133 269
3 110 79 133
3 133 79 269
3 117 110 133
3 117 133 148
3 141 150 166
3 150 141 167
3 166 150 167
3 399 389 401
3 401 389 404
3 57 61 74
3 32 46 61
3 46 49 61
3 230 243 244
3 286 287 325
3 304 330 337
3 304 337 367
3 337 339 367
3 337 330 339
3 330 304 332
3 330 332 339
3 339 332 362
3 28 14 34
3 18 14 28
3 305 296 306
3 220 225 245
3 220 198 225
3 304 286 332
3 286 325 332
3 220 215 231
3 215 198 231
3 198 220 231
3 215 220 245
3 295 305 310
3 310 305 326
3 286 261 287
3 261 253 287
3 173 180 181
3 215 245 255
3 173 157 180
3 180 158 181
3 181 158 188
3 147 158 180
3 328 321 329
3 321 328 346
3 157 173 190
3 296 303 306
3 196 230 244
3 198 213 225
3 246 225 250
3 225 213 250
3 338 321 354
3 147 142 158
3 210 217 223
3 155 166 185
3 242 243 261
3 230 253 261
3 243 230 261
3 243 195 244
3 195 196 244
3 182 154 193
3 115 105 126
3 363 369 380
3 380 387 395
3 363 380 395
3 387 380 393
3 380 369 393
3 73 91 103
3 103 101 123
3 91 101 103
3 343 338 354
3 396 385 397
3 383 396 397
3 389 397 404
3 389 383 397
3 125 118 139
3 118 117 139
3 251 236 264
3 47 64 90
3 173 189 190
3 63 76 77
3 141 127 167
3 344 356 357
3 344 348 356
3 161 157 190
3 287 310 325
3 325 326 332
3 325 310 326
3 182 193 210
3 321 346 354
3 81 106 122
3 185 166 208
3 296 280 303
3 15 9 18
3 93 99 105
3 331 338 343
3 90 64 93
3 185 208 215
3 354 346 378
3 136 141 155
3 155 141 166
3 255 245 266
3 223 226 232
3 326 306 331
3 305 306 326
3 249 280 296
3 62 73 85
3 104 118 125
3 9 14 18
3 14 5 34
3 9 5 14
3 121 114 131
3 153 136 155
3 279 293 316
3 315 279 316
3 361 339 362
3 339 361 367
3 164 140 172
3 293 304 341
3 316 293 341
3 293 286 304
3 174 169 184
3 159 169 174
3 159 160 169
3 197 185 215
3 241 236 251
3 232 246 250
3 213 232 250
3 145 122 154
3 114 122 145
3 122 138 154
3 300 314 319
3 281 319 333
3 297 281 333
3 273 300 319
3 281 273 319
3 264 276 279
3 251 264 279
3 271 267 297
3 67 47 90
3 157 147 180
3 251 279 302
3 302 279 315
3 366 360 382
3 197 215 255
3 76 69 77
3 77 69 104
3 295 296 305
3 295 266 296
3 66 80 89
3 331 329 338
3 329 321 338
3 48 55 84
3 354 378 379
3 151 170 175
3 139 117 163
3 117 148 163
3 228 168 269
3 89 80 100
3 196 221 230
3 230 221 253
3 196 197 221
3 198 178 213
3 136 127 141
3 2 9 15
3 166 167 178
3 154 138 193
3 260 263 283
3 260 226 263
3 352 316 353
3 316 341 353
3 121 131 167
3 127 121 167
3 95 121 127
3 343 354 362
3 120 136 153
3 253 295 310
3 149 145 154
3 208 198 215
3 370 353 375
3 352 353 370
3 173 181 188
3 395 385 396
3 383 395 396
3 221 239 253
3 149 154 182
3 194 211 219
3 194 219 254
3 155 185 197
3 359 351 366
3 333 359 365
3 365 359 381
3 359 366 381
3 320 333 365
3 341 304 367
3 353 341 367
3 122 106 138
3 116 102 129
3 116 129 205
3 319 314 351
3 319 351 359
3 333 319 359
3 245 225 249
3 48 39 55
3 30 40 41
3 328 336 346
3 66 52 67
3 66 67 80
3 156 143 177
3 143 135 164
3 143 164 177
3 126 135 143
3 126 143 156
3 210 204 217
3 204 216 217
3 242 261 286
3 64 72 93
3 42 26 47
3 26 41 47
3 25 26 42
3 25 8 26
3 26 8 30
3 26 30 41
3 7 8 25
3 201 218 233
3 218 228 233
3 218 201 228
3 41 40 54
3 351 360 366
3 312 318 322
3 223 217 226
3 210 223 232
3 271 297 320
3 137 119 144
3 115 126 142
3 101 116 123
3 101 102 116
3 101 91 102
3 108 105 115
3 90 105 108
3 90 93 105
3 105 99 126
3 302 315 323
3 2 3 9
3 52 47 67
3 80 67 90
3 97 114 121
3 55 81 84
3 242 195 243
3 392 374 394
3 392 394 398
3 394 390 398
3 375 390 394
3 370 375 394
3 374 370 394
3 1 0 2
3 0 1 4
3 107 100 112
3 236 203 264
3 214 203 236
3 206 214 236
3 206 236 241
3 200 229 247
3 219 224 285
3 219 211 224
3 283 263 294
3 320 297 333
3 323 352 360
3 294 292 298
3 265 292 294
3 354 361 362
3 93 98 99
3 99 98 113
3 113 98 125
3 114 81 122
3 148 162 163
3 175 170 203
3 68 63 77
3 63 53 76
3 267 281 297
3 314 323 360
3 60 84 97
3 60 48 84
3 195 165 196
3 239 266 295
3 253 239 295
3 85 103 109
3 85 73 103
3 264 203 276
3 112 100 157
3 300 274 314
3 99 113 126
3 314 302 323
3 351 314 360
3 366 382 387
3 144 119 153
3 140 139 172
3 135 140 164
3 173 188 189
3 131 114 149
3 196 176 197
3 232 226 246
3 221 197 239
3 349 344 357
3 334 344 349
3 344 334 348
3 224 271 285
3 224 267 271
3 21 25 42
3 21 42 43
3 24 21 43
3 160 151 175
3 151 152 170
3 315 316 352
3 323 315 352
3 43 42 52
3 191 201 233
3 162 148 168
3 162 168 191
3 397 392 404
3 385 392 397
3 273 256 300
3 256 274 300
3 267 273 281
3 287 253 310
3 94 111 119
3 298 292 301
3 383 389 399
3 92 86 96
3 91 86 92
3 267 256 273
3 94 87 111
3 144 153 176
3 153 155 176
3 89 100 107
3 2 0 3
3 239 197 255
3 239 255 266
3 225 246 249
3 166 178 198
3 166 198 208
3 109 103 123
3 73 75 91
3 139 163 172
3 163 162 172
3 346 364 378
3 200 209 229
3 156 177 209
3 279 276 293
3 42 47 52
3 353 367 375
3 114 145 149
3 82 66 89
3 19 50 53
3 257 247 259
3 248 257 259
3 74 83 109
3 49 62 83
3 49 46 56
3 78 60 97
3 108 142 147
3 108 115 142
3 346 336 364
3 55 44 65
3 274 302 314
3 65 44 82
3 363 355 369
3 369 355 393
3 165 144 176
3 84 81 97
3 392 398 404
3 80 90 108
3 24 43 45
3 45 43 52
3 1 2 15
3 13 1 15
3 13 15 19
3 8 1 13
3 4 1 8
3 13 19 30
3 8 13 30
3 95 78 97
3 95 97 121
3 165 176 196
3 247 229 252
3 285 271 311
3 311 271 320
3 39 44 55
3 137 144 152
3 152 144 165
3 124 119 137
3 44 45 82
3 111 88 120
3 119 111 120
3 87 88 111
3 88 95 120
3 106 107 132
3 106 132 138
3 360 352 374
3 360 374 382
3 202 206 235
3 235 206 241
3 381 366 393
3 366 387 393
3 355 381 393
3 355 365 381
3 355 320 365
3 361 354 379
3 211 202 235
3 194 202 211
3 194 184 202
3 21 7 25
3 120 95 127
3 120 127 136
3 200 188 209
3 259 247 268
3 119 120 153
3 45 52 66
3 45 66 82
3 36 24 45
3 11 24 36
3 10 11 20
3 17 10 20
3 113 125 140
3 135 113 140
3 125 139 140
3 106 82 107
3 65 82 106
3 53 50 76
3 376 379 386
3 376 361 379
3 379 378 386
3 152 165 195
3 170 152 195
3 170 195 203
3 203 195 242
3 59 51 71
3 59 71 87
3 317 324 350
3 340 317 350
3 358 357 373
3 350 324 358
3 350 358 373
3 301 313 345
3 282 291 301
3 301 291 313
3 298 301 345
3 313 312 322
3 169 160 214
3 184 169 214
3 10 4 11
3 20 11 36
3 3 0 4
3 142 126 158
3 193 186 210
3 138 186 193
3 138 132 186
3 186 204 210
3 126 113 135
3 247 252 268
3 335 311 399
3 167 131 178
3 131 149 178
3 92 96 102
3 91 92 102
3 86 94 96
3 82 89 107
3 265 282 292
3 158 156 188
3 126 156 158
3 44 36 45
3 246 226 260
3 17 23 29
3 269 277 289
3 290 289 312
3 272 258 290
3 258 269 289
3 258 289 290
3 227 228 269
3 258 227 269
3 227 258 272
3 228 227 233
3 233 227 272
3 191 233 240
3 199 191 240
3 162 191 199
3 240 233 272
3 352 370 374
3 108 147 157
3 3 5 9
3 5 3 6
3 3 4 6
3 176 155 197
3 100 80 108
3 276 242 293
3 242 286 293
3 317 298 324
3 205 254 311
3 205 311 335
3 254 219 285
3 254 285 311
3 134 137 152
3 151 134 152
3 311 320 355
3 97 81 114
3 283 294 317
3 249 246 280
3 235 241 251
3 375 367 376
3 4 7 11
3 96 124 128
3 96 119 124
3 128 124 134
3 102 96 128
3 262 270 277
3 391 388 400
3 388 384 400
3 347 384 388
3 203 242 276
3 71 78 95
3 88 71 95
3 248 265 294
3 175 203 214
3 280 299 303
3 303 299 307
3 235 251 274
3 274 251 302
3 336 328 340
3 328 307 340
3 336 350 364
3 336 340 350
3 280 260 299
3 375 376 390
3 18 28 50
3 364 377 378
3 128 134 151
3 130 128 151
3 130 151 160
3 349 357 358
3 70 86 91
3 35 39 48
3 35 48 60
3 71 51 78
3 269 262 277
3 217 216 226
3 191 168 201
3 201 168 228
3 50 28 58
3 28 34 58
3 246 260 280
3 51 60 78
3 51 35 60
3 345 349 358
3 324 345 358
3 324 298 345
3 377 391 402
3 213 178 232
3 206 184 214
3 265 259 282
3 345 322 349
3 307 317 340
3 307 283 317
3 385 374 392
3 6 4 12
3 7 4 8
3 4 10 12
3 58 69 76
3 50 58 76
3 367 361 376
3 49 56 59
3 56 51 59
3 188 156 209
3 54 63 68
3 40 53 54
3 248 222 257
3 134 124 137
3 382 385 387
3 382 374 385
3 313 322 345
3 35 31 39
3 39 31 44
3 31 36 44
3 75 70 91
3 59 70 75
3 70 59 87
3 6 12 22
3 364 373 377
3 364 350 373
3 102 128 130
3 248 259 265
3 189 188 222
3 216 222 248
3 216 189 222
3 204 189 216
3 188 200 222
3 31 20 36
3 23 20 31
3 11 7 24
3 7 21 24
3 37 51 56
3 46 37 56
3 311 383 399
3 311 363 383
3 311 355 363
3 37 35 51
3 23 35 37
3 263 248 294
3 34 22 38
3 277 270 308
3 54 53 63
3 160 175 214
3 259 268 282
3 282 268 291
3 100 108 157
3 29 32 33
3 226 248 263
3 226 216 248
3 268 252 275
3 268 275 291
3 32 37 46
3 292 282 301
3 240 272 275
3 275 272 290
3 275 290 291
3 291 290 312
3 291 312 313
3 87 71 88
3 17 20 23
3 29 23 32
3 96 94 119
3 386 377 402
3 32 23 37
3 58 34 79
3 23 31 35
3 69 58 79
3 347 335 399
3 378 377 386
3 15 18 19
3 19 18 50
3 47 41 64
3 64 41 72
3 41 54 72
3 55 65 81
3 81 65 106
3 86 70 87
3 86 87 94
3 159 129 160
3 129 159 205
3 205 159 254
3 159 174 254
3 174 194 254
3 174 184 194
3 129 130 160
3 129 102 130
3 187 162 192
3 187 192 238
3 192 162 199
3 192 199 238
3 238 199 240
3 238 240 275
3 212 187 238
3 252 238 275
3 237 212 238
3 237 238 252
3 207 187 212
3 207 212 237
3 229 237 252
3 229 209 237
3 209 207 237
3 164 187 207
3 177 207 209
3 177 164 207
3 172 162 187
3 164 172 187
3 288 277 308
3 288 308 318
3 312 288 318
3 303 307 309
3 309 307 329
3 309 329 331
3 306 303 309
3 306 309 331
3 307 328 329
3 357 356 371
3 357 371 372
3 356 368 371
3 356 348 368
3 371 368 388
3 372 371 388
3 372 388 391
3 377 372 391
3 373 372 377
3 357 372 373
3 387 385 395
3 383 363 395
3 398 403 404
3 404 403 405
3 403 402 405
3 398 390 403
3 390 386 403
3 386 402 403
3 376 386 390
3 342 343 362
3 342 326 343
3 332 342 362
3 332 326 342
3 326 331 343
3 278 284 308
3 308 284 348
3 322 334 349
3 334 308 348
3 270 278 308
3 104 69 110
3 104 110 118
3 110 117 118
3 182 210 232
3 178 182 232
3 178 149 182
3 62 59 75
3 49 59 62
3 73 62 75
3 299 283 307
3 260 283 299
3 200 247 257
3 222 200 257
3 294 298 317
3 202 184 206
3 266 249 296
3 245 249 266
3 54 68 72
3 72 68 98
3 93 72 98
3 186 189 204
3 256 235 274
3 234 256 267
3 234 235 256
3 234 211 235
3 224 234 267
3 224 211 234
3 40 30 53
3 30 19 53
3 68 77 98
3 98 77 104
3 98 104 125
3 27 16 29
3 27 29 33
3 27 33 38
3 38 33 57
3 22 16 27
3 22 27 38
3 12 16 22
3 16 12 17
3 16 17 29
3 12 10 17
3 171 132 179
3 132 171 186
3 171 183 186
3 171 179 183
3 112 157 161
3 112 146 179
3 189 186 190
3 186 146 190
3 132 107 179
3 107 112 179
3 183 146 186
3 179 146 183
3 146 161 190
3 146 112 161
3 384 399 400
3 400 404 405
3 402 391 405
3 391 400 405
3 384 347 399
3 368 327 388
3 348 327 368
3 327 347 388
3 284 327 348
3 327 335 347
3 327 284 335
3 270 79 284
3 79 262 269
3 69 79 110
3 278 270 284
3 262 79 270
3 79 109 284
3 79 74 109
3 57 74 79
3 38 57 79
3 34 38 79
3 284 109 335
3 109 123 335
3 123 116 335
3 116 205 335
