ply
format ascii 1.0
comment VCGLIB generated
element vertex 818
property float x
property float y
property float z
element face 1632
property list uchar int vertex_indices
end_header
0.373448 0.271901 0.627308
0.372980 0.260210 0.627190
0.365615 0.268917 0.629958
0.359597 0.280599 0.629303
0.365619 0.253891 0.629063
0.362919 0.287004 0.627818
0.351744 0.289201 0.627782
0.342837 0.289678 0.629605
0.369855 0.246733 0.630630
0.359042 0.248768 0.630198
0.371547 0.274740 0.629488
0.358649 0.287163 0.630455
0.353440 0.245712 0.629716
0.365234 0.261768 0.630158
0.364983 0.271786 0.632315
0.358106 0.243778 0.631998
0.349001 0.252087 0.631587
0.371556 0.256292 0.629933
0.364875 0.258770 0.631958
0.366114 0.275880 0.628312
0.357801 0.272530 0.631034
0.327712 0.282466 0.632867
0.356284 0.281907 0.631288
0.364370 0.291484 0.632737
0.353723 0.255921 0.634048
0.358646 0.268153 0.633545
0.376876 0.277349 0.633840
0.326751 0.276688 0.633589
0.334945 0.284029 0.629205
0.345740 0.283169 0.630231
0.340327 0.286995 0.631817
0.335535 0.290785 0.633268
0.340478 0.244972 0.633687
0.333711 0.254781 0.631795
0.356573 0.250095 0.633382
0.378484 0.257531 0.633325
0.353880 0.274651 0.633910
0.341145 0.294401 0.635995
0.344889 0.295718 0.634693
0.362494 0.242492 0.631283
0.338740 0.248700 0.631422
0.346226 0.255815 0.634627
0.329812 0.260932 0.631677
0.359790 0.261129 0.633117
0.325885 0.260868 0.634868
0.331227 0.269735 0.631891
0.338480 0.264630 0.632733
0.349944 0.275339 0.632271
0.324421 0.266895 0.634083
0.325409 0.273135 0.632692
0.331483 0.275846 0.630948
0.339813 0.271003 0.634039
0.375222 0.279662 0.630954
0.343720 0.281521 0.633425
0.356842 0.294116 0.632102
0.351201 0.295176 0.632812
0.374272 0.252458 0.631697
0.329427 0.257503 0.633571
0.343943 0.262597 0.636531
0.341551 0.276123 0.631962
0.371534 0.284991 0.631466
0.353166 0.261012 0.636182
0.334167 0.271913 0.634608
0.342964 0.255825 0.632787
0.325260 0.283382 0.637974
0.330523 0.289223 0.639014
0.381214 0.271370 0.638617
0.348432 0.270822 0.636873
0.369748 0.242610 0.636355
0.359027 0.244662 0.636630
0.324598 0.259788 0.639412
0.358720 0.295795 0.636398
0.335241 0.245871 0.637946
0.329158 0.254286 0.635181
0.379895 0.266272 0.632158
0.368400 0.290077 0.634486
0.353367 0.297098 0.637409
0.336375 0.293351 0.637470
0.376624 0.249696 0.636549
0.347055 0.244951 0.630242
0.326303 0.254668 0.641135
0.322323 0.265625 0.641686
0.367179 0.292217 0.638453
0.365895 0.243230 0.637792
0.322235 0.276735 0.639787
0.363827 0.244244 0.642336
0.381588 0.261530 0.638467
0.379574 0.275217 0.635444
0.375449 0.283575 0.636326
0.379800 0.255281 0.638364
0.334879 0.244872 0.643124
0.323520 0.258317 0.644724
0.338712 0.293915 0.647577
0.361846 0.295286 0.641071
0.326236 0.253223 0.645545
0.367247 0.291787 0.642895
0.344432 0.296259 0.645021
0.362103 0.294735 0.644396
0.368223 0.241621 0.647073
0.381028 0.272191 0.643855
0.375158 0.247106 0.644672
0.379893 0.254077 0.644497
0.324625 0.282329 0.646093
0.354878 0.297059 0.644215
0.376194 0.283201 0.644178
0.366706 0.291746 0.645027
0.321748 0.263710 0.648410
0.321717 0.274500 0.646783
0.356860 0.295612 0.646191
0.378757 0.278647 0.643190
0.324209 0.282733 0.648869
0.333123 0.290925 0.646833
0.332812 0.245744 0.645091
0.353662 0.296697 0.648000
0.377718 0.250929 0.647798
0.360845 0.295503 0.647370
0.342902 0.295215 0.648401
0.349940 0.296416 0.648366
0.371052 0.289551 0.646956
0.356880 0.297162 0.651763
0.328584 0.250813 0.657371
0.381734 0.272790 0.646828
0.323133 0.278450 0.654183
0.369868 0.290324 0.651080
0.341809 0.294763 0.655456
0.346322 0.297042 0.651604
0.380897 0.257612 0.646693
0.321563 0.270532 0.655689
0.362596 0.295360 0.651682
0.382120 0.261743 0.648651
0.323220 0.259093 0.656125
0.365291 0.293035 0.653837
0.334125 0.291878 0.654795
0.347648 0.297937 0.653772
0.359519 0.294896 0.654200
0.366535 0.242875 0.654303
0.380735 0.275862 0.651418
0.377074 0.282582 0.652063
0.369597 0.241568 0.651918
0.379107 0.252989 0.654999
0.325992 0.254323 0.656226
0.325215 0.283049 0.655092
0.334447 0.244870 0.658227
0.322550 0.278392 0.658969
0.382296 0.267592 0.653805
0.337957 0.294068 0.658272
0.381145 0.258027 0.655412
0.347454 0.296259 0.656482
0.357427 0.296795 0.662171
0.376298 0.248982 0.654685
0.369720 0.291396 0.655107
0.352967 0.296991 0.656482
0.368541 0.242585 0.662461
0.379546 0.280594 0.654948
0.335711 0.246684 0.663142
0.325599 0.258077 0.660982
0.322342 0.265409 0.660227
0.335395 0.292448 0.663292
0.346393 0.296598 0.662325
0.382251 0.273596 0.655080
0.380389 0.278834 0.661849
0.328646 0.254444 0.663296
0.360943 0.295603 0.663471
0.372047 0.243470 0.657934
0.382257 0.258728 0.661641
0.325652 0.283716 0.662558
0.324782 0.274759 0.666326
0.377345 0.284465 0.659404
0.332481 0.289809 0.667077
0.323832 0.265208 0.664053
0.348983 0.296840 0.670472
0.363098 0.244833 0.656826
0.378210 0.250895 0.662899
0.327030 0.283169 0.666472
0.370975 0.290304 0.662664
0.365380 0.294378 0.660123
0.342022 0.295130 0.665442
0.372100 0.245753 0.666219
0.325588 0.264652 0.667416
0.339174 0.245407 0.668510
0.324175 0.261427 0.671461
0.382454 0.272641 0.662900
0.356800 0.296669 0.672044
0.323016 0.273416 0.669094
0.325288 0.281775 0.671179
0.330308 0.254893 0.667541
0.370403 0.242912 0.670627
0.377528 0.283618 0.669870
0.362821 0.295211 0.670821
0.378901 0.252525 0.668435
0.327112 0.254883 0.672673
0.365521 0.244561 0.666979
0.367146 0.242054 0.673664
0.323003 0.272756 0.675228
0.370820 0.290127 0.670523
0.381710 0.275333 0.670336
0.367212 0.292513 0.672872
0.336033 0.244565 0.674667
0.382577 0.260466 0.671286
0.380165 0.279180 0.672466
0.327463 0.284277 0.674737
0.361492 0.294974 0.673529
0.381053 0.255986 0.671733
0.334251 0.290087 0.674868
0.339129 0.293593 0.675831
0.344775 0.295370 0.676257
0.325865 0.254205 0.678253
0.323744 0.260442 0.676294
0.323921 0.278293 0.676650
0.352610 0.297716 0.679560
0.351354 0.296215 0.675449
0.322072 0.263446 0.679854
0.382643 0.271483 0.673888
0.376217 0.286328 0.675239
0.364459 0.244095 0.676940
0.376953 0.250104 0.674437
0.335047 0.292138 0.680566
0.366309 0.294594 0.677130
0.382529 0.262163 0.675347
0.361267 0.296711 0.677168
0.380151 0.254048 0.676125
0.327458 0.250524 0.683185
0.381088 0.277935 0.679201
0.324936 0.278657 0.682414
0.344737 0.296341 0.680755
0.327654 0.284050 0.683477
0.367162 0.293640 0.681263
0.342105 0.294724 0.683710
0.336164 0.242499 0.681329
0.362607 0.244597 0.683691
0.373273 0.244496 0.678432
0.370246 0.291848 0.680877
0.359913 0.295699 0.682113
0.323744 0.259437 0.684946
0.380821 0.280640 0.683163
0.350709 0.295820 0.683642
0.344651 0.244886 0.666471
0.382426 0.273662 0.681032
0.377948 0.283815 0.680209
0.368869 0.241880 0.683033
0.323082 0.272554 0.682879
0.358219 0.297428 0.684256
0.340855 0.244732 0.680782
0.382423 0.259284 0.681835
0.383254 0.263795 0.682683
0.324977 0.281216 0.687543
0.368530 0.241600 0.689932
0.380382 0.254173 0.683456
0.324894 0.277225 0.690366
0.325649 0.255154 0.687708
0.335115 0.291420 0.684117
0.322147 0.267946 0.688092
0.370355 0.292826 0.685787
0.328677 0.285257 0.690417
0.335976 0.291868 0.690927
0.377946 0.250323 0.682864
0.328129 0.251380 0.690538
0.380563 0.279884 0.687847
0.323722 0.262558 0.692345
0.323656 0.271232 0.691061
0.369826 0.293100 0.691050
0.366670 0.293791 0.688181
0.341970 0.294101 0.692757
0.336790 0.242985 0.689699
0.361371 0.244863 0.693552
0.361172 0.295573 0.689964
0.350595 0.296832 0.687485
0.353637 0.296555 0.691712
0.380410 0.252640 0.689197
0.382880 0.274538 0.688741
0.325797 0.261888 0.695045
0.377895 0.284713 0.688230
0.329647 0.284720 0.697507
0.336581 0.292525 0.695413
0.364340 0.243712 0.690575
0.336836 0.245552 0.694871
0.331079 0.252650 0.696208
0.383002 0.260901 0.690345
0.383858 0.267706 0.691110
0.347655 0.296028 0.694585
0.325984 0.281111 0.694270
0.345028 0.294974 0.698660
0.354318 0.295969 0.698742
0.330254 0.263200 0.699456
0.325204 0.272801 0.696504
0.381954 0.257192 0.692619
0.380482 0.281220 0.694936
0.377966 0.285361 0.696005
0.379404 0.251568 0.693177
0.369044 0.293049 0.696408
0.337634 0.291109 0.699271
0.382843 0.274855 0.697016
0.328602 0.270421 0.700495
0.371979 0.291466 0.699916
0.361967 0.296218 0.695415
0.367629 0.242369 0.696848
0.371979 0.243746 0.695442
0.342492 0.244950 0.699709
0.383740 0.264614 0.698185
0.330314 0.279165 0.701311
0.370844 0.246185 0.700731
0.380407 0.254222 0.698333
0.382773 0.260032 0.697940
0.329646 0.260227 0.702286
0.362312 0.295497 0.703319
0.332446 0.253825 0.701749
0.327555 0.266583 0.702066
0.366609 0.293775 0.699094
0.356486 0.295878 0.702662
0.330399 0.282543 0.704252
0.349377 0.294586 0.702404
0.380432 0.282898 0.700603
0.340923 0.291067 0.702821
0.325653 0.271602 0.705420
0.329788 0.253394 0.706440
0.327623 0.280855 0.707602
0.338782 0.292421 0.705898
0.347251 0.295929 0.705688
0.381026 0.255519 0.702466
0.327095 0.259765 0.707427
0.371038 0.291533 0.704409
0.336879 0.247046 0.704882
0.382181 0.278819 0.705435
0.356955 0.295747 0.709079
0.383906 0.261943 0.704011
0.365323 0.293810 0.705675
0.371702 0.244439 0.704799
0.338623 0.242925 0.708076
0.323878 0.269344 0.709978
0.380121 0.284110 0.707129
0.342523 0.244464 0.705251
0.383231 0.259593 0.708041
0.324926 0.262032 0.712247
0.372790 0.292103 0.709712
0.380890 0.253320 0.708987
0.333450 0.288296 0.709111
0.325015 0.277636 0.711097
0.365552 0.295553 0.710140
0.349371 0.296592 0.711030
0.338661 0.241945 0.711951
0.329164 0.251420 0.711416
0.383782 0.272733 0.704766
0.344821 0.294944 0.710140
0.365788 0.243773 0.711282
0.364102 0.244673 0.701148
0.378198 0.287145 0.711611
0.355025 0.297384 0.716252
0.375555 0.246969 0.708446
0.385350 0.266706 0.708354
0.328290 0.284504 0.714632
0.334713 0.290502 0.713773
0.368987 0.241496 0.716279
0.326478 0.256584 0.714029
0.324146 0.262483 0.718884
0.339993 0.293200 0.710683
0.343987 0.244690 0.714444
0.332185 0.247235 0.715801
0.326109 0.280327 0.721579
0.368063 0.295133 0.715452
0.346733 0.296454 0.718709
0.369801 0.241931 0.708305
0.324274 0.275607 0.718700
0.341002 0.294892 0.720191
0.372329 0.293455 0.718876
0.361854 0.297274 0.716916
0.382044 0.282892 0.717331
0.383825 0.278096 0.714426
0.328097 0.284133 0.719690
0.335651 0.291798 0.719994
0.372504 0.242863 0.718439
0.383947 0.258091 0.714815
0.386046 0.263746 0.718181
0.378399 0.287896 0.719602
0.366462 0.296297 0.721361
0.326991 0.253622 0.719564
0.380054 0.250068 0.718991
0.330466 0.249020 0.724174
0.324977 0.260604 0.723973
0.385078 0.277064 0.720314
0.324084 0.274039 0.728330
0.382555 0.254078 0.718555
0.385918 0.273217 0.717744
0.350162 0.298601 0.722633
0.362651 0.244815 0.715288
0.385204 0.259325 0.719108
0.327065 0.254797 0.727699
0.343012 0.244462 0.721327
0.338914 0.293739 0.729039
0.363029 0.297520 0.728027
0.353336 0.297289 0.729261
0.335118 0.247346 0.731009
0.373759 0.243765 0.727737
0.366700 0.243202 0.727699
0.381409 0.252337 0.728973
0.359094 0.297040 0.731321
0.337838 0.242490 0.726601
0.328562 0.284415 0.729391
0.371816 0.293117 0.728493
0.344531 0.296365 0.727821
0.346056 0.244691 0.732087
0.326054 0.277952 0.730996
0.378578 0.287785 0.727425
0.368065 0.294407 0.729883
0.385431 0.259781 0.727577
0.328540 0.255390 0.732481
0.385028 0.266006 0.732062
0.345990 0.295023 0.731346
0.341910 0.242786 0.732117
0.369910 0.241587 0.727977
0.325952 0.260624 0.731679
0.385450 0.274901 0.728651
0.324271 0.267262 0.731619
0.381149 0.282246 0.733351
0.336218 0.290984 0.731155
0.382949 0.281218 0.728530
0.360241 0.295630 0.733047
0.372235 0.245484 0.734498
0.370461 0.293184 0.734703
0.364426 0.295474 0.732279
0.329257 0.282913 0.733017
0.365515 0.242303 0.734482
0.362731 0.244467 0.731342
0.325587 0.273607 0.738754
0.340833 0.292660 0.733590
0.329529 0.253994 0.737871
0.354691 0.296261 0.736345
0.325472 0.263582 0.739865
0.327239 0.278946 0.739120
0.382088 0.255927 0.731842
0.367741 0.294397 0.735873
0.375202 0.289944 0.736262
0.349807 0.294733 0.736664
0.383784 0.259137 0.735614
0.384691 0.275791 0.735642
0.362002 0.296359 0.736696
0.355346 0.298120 0.737606
0.328432 0.283140 0.740596
0.326746 0.257812 0.740858
0.386929 0.262937 0.738543
0.337403 0.291731 0.739045
0.343056 0.294804 0.739517
0.371935 0.295298 0.743664
0.370194 0.240940 0.743295
0.329446 0.251669 0.740881
0.382681 0.283924 0.738875
0.337501 0.244782 0.738876
0.342744 0.242037 0.738097
0.373593 0.243474 0.740115
0.337756 0.242832 0.742305
0.360828 0.297900 0.737608
0.354921 0.298069 0.741099
0.332185 0.288657 0.743501
0.365824 0.296117 0.737358
0.345553 0.244654 0.741281
0.364617 0.297165 0.746181
0.385491 0.257921 0.740011
0.373685 0.293293 0.739408
0.348963 0.294629 0.745578
0.325199 0.260722 0.747829
0.341462 0.294408 0.751147
0.382463 0.252525 0.738511
0.329066 0.253437 0.750614
0.386778 0.275871 0.739100
0.384812 0.280590 0.745179
0.329237 0.283893 0.749264
0.325198 0.273381 0.748880
0.326926 0.279125 0.748715
0.386324 0.275425 0.746478
0.374405 0.292023 0.745892
0.368069 0.295041 0.748692
0.354337 0.298258 0.747547
0.341488 0.241345 0.745426
0.327529 0.257381 0.750882
0.331986 0.249672 0.751825
0.380489 0.286616 0.746233
0.326396 0.261988 0.751748
0.387314 0.270725 0.748027
0.360081 0.298335 0.749393
0.337557 0.292293 0.749905
0.372883 0.295357 0.750826
0.368182 0.241254 0.748103
0.386224 0.260934 0.749557
0.355278 0.297392 0.750418
0.383387 0.254469 0.749478
0.346487 0.295612 0.751759
0.375936 0.245857 0.748614
0.325366 0.274461 0.753705
0.377568 0.289670 0.753643
0.338880 0.242958 0.751127
0.325921 0.265391 0.756142
0.326728 0.279841 0.753807
0.356017 0.298872 0.752966
0.384340 0.282769 0.750248
0.336892 0.291482 0.757356
0.369404 0.294924 0.754998
0.328158 0.258340 0.758523
0.372958 0.243111 0.752691
0.363377 0.244732 0.740012
0.331195 0.286312 0.756283
0.349073 0.297939 0.754279
0.386577 0.260025 0.753602
0.326023 0.273631 0.757410
0.382563 0.285077 0.755111
0.364739 0.297756 0.752946
0.365409 0.243626 0.755571
0.331481 0.251591 0.758082
0.342261 0.294570 0.757573
0.347563 0.296585 0.756778
0.386271 0.277569 0.753721
0.327753 0.280900 0.758162
0.363988 0.297049 0.756925
0.370742 0.242898 0.757424
0.387551 0.269151 0.753938
0.338033 0.245068 0.759251
0.383696 0.254378 0.755443
0.375306 0.293578 0.757773
0.352265 0.297355 0.758017
0.347754 0.297253 0.760785
0.341978 0.242519 0.758331
0.375847 0.249048 0.761508
0.378142 0.248762 0.757311
0.356828 0.299253 0.760880
0.373371 0.296307 0.757509
0.343747 0.245419 0.765349
0.386521 0.261166 0.758299
0.364220 0.298081 0.765994
0.346811 0.244778 0.760942
0.329979 0.255979 0.763167
0.338582 0.248266 0.764164
0.383163 0.256190 0.760019
0.327653 0.260371 0.763458
0.376773 0.293836 0.763735
0.370161 0.296077 0.765650
0.352390 0.299185 0.763578
0.325951 0.271913 0.770347
0.383605 0.284740 0.762577
0.336841 0.291833 0.767477
0.379081 0.254032 0.764875
0.371711 0.247875 0.764677
0.335966 0.248741 0.768296
0.326716 0.265478 0.771669
0.329709 0.284276 0.767859
0.347867 0.297732 0.768737
0.359818 0.299157 0.765267
0.366478 0.244385 0.762964
0.384958 0.261961 0.764344
0.327997 0.258072 0.767532
0.340804 0.294435 0.763608
0.387213 0.268094 0.763160
0.327422 0.278993 0.769768
0.386948 0.277156 0.762491
0.373168 0.246896 0.769063
0.374092 0.295128 0.771781
0.353543 0.299234 0.768317
0.383187 0.256293 0.768385
0.329972 0.256001 0.776301
0.369028 0.295765 0.770958
0.358285 0.298933 0.771192
0.349968 0.297629 0.770735
0.387801 0.269979 0.768815
0.329715 0.282342 0.776125
0.333475 0.287197 0.772962
0.376772 0.292163 0.771943
0.344553 0.296273 0.767934
0.347113 0.297903 0.772402
0.343894 0.296681 0.773871
0.367260 0.244196 0.769512
0.356883 0.297160 0.774924
0.338598 0.246107 0.771023
0.387157 0.274943 0.771926
0.327541 0.270542 0.776333
0.333409 0.250557 0.774251
0.327456 0.276607 0.775255
0.387023 0.262694 0.769935
0.327775 0.261146 0.774904
0.347825 0.297333 0.774916
0.342830 0.243341 0.772880
0.349782 0.244696 0.773707
0.339583 0.245140 0.779695
0.377135 0.294460 0.774993
0.361500 0.298336 0.775818
0.376050 0.291387 0.776079
0.339336 0.292850 0.774464
0.345701 0.296240 0.777053
0.351518 0.298054 0.775999
0.374467 0.246392 0.773854
0.384223 0.256355 0.774486
0.385192 0.281591 0.768412
0.363818 0.296866 0.779156
0.337534 0.290354 0.779594
0.329606 0.277458 0.780412
0.343100 0.292899 0.779525
0.367404 0.242729 0.774715
0.360974 0.244487 0.776571
0.328807 0.260236 0.779518
0.331818 0.284646 0.779377
0.383561 0.284040 0.776179
0.364544 0.297797 0.777166
0.382678 0.282754 0.780378
0.348726 0.296802 0.779556
0.332699 0.252348 0.781866
0.340009 0.291622 0.784128
0.363350 0.297118 0.783419
0.358930 0.298267 0.778537
0.347272 0.241653 0.778559
0.386759 0.267170 0.778372
0.385537 0.258950 0.779434
0.386655 0.276448 0.777935
0.356376 0.298178 0.781171
0.355537 0.243404 0.781245
0.375865 0.247661 0.780171
0.328121 0.272012 0.784291
0.366880 0.295916 0.781821
0.379809 0.287695 0.781067
0.370537 0.292907 0.783859
0.370062 0.295313 0.779934
0.350433 0.295296 0.783999
0.382882 0.254763 0.782615
0.334174 0.253941 0.787541
0.373989 0.294786 0.781909
0.357413 0.295955 0.787040
0.342958 0.244230 0.784343
0.334301 0.283777 0.784645
0.352722 0.297146 0.783842
0.357438 0.241065 0.784711
0.363434 0.241355 0.780533
0.384369 0.260516 0.784683
0.370674 0.244444 0.782343
0.379241 0.251324 0.785321
0.330216 0.268808 0.787038
0.386484 0.267163 0.784536
0.380883 0.285271 0.786287
0.375464 0.289971 0.785235
0.367337 0.295228 0.786362
0.339259 0.248234 0.789899
0.342161 0.291319 0.788147
0.365933 0.243411 0.786289
0.332177 0.275434 0.791337
0.330685 0.279222 0.786524
0.331085 0.257937 0.787970
0.349970 0.295152 0.790400
0.347706 0.295477 0.786265
0.363190 0.296313 0.788237
0.345529 0.244179 0.788921
0.384867 0.276083 0.784121
0.359218 0.295163 0.790114
0.350295 0.242685 0.788312
0.376603 0.251280 0.790728
0.368164 0.294211 0.791143
0.370519 0.293030 0.790881
0.362226 0.294574 0.791276
0.334418 0.282870 0.791992
0.358997 0.242787 0.790275
0.371090 0.246251 0.788332
0.333348 0.262306 0.794778
0.339811 0.288014 0.794279
0.335235 0.254787 0.793968
0.383210 0.263969 0.792702
0.339476 0.250795 0.795734
0.378697 0.284804 0.790825
0.362571 0.293396 0.797747
0.366418 0.291859 0.796511
0.383625 0.279288 0.789714
0.331314 0.271745 0.794796
0.337989 0.282848 0.797670
0.372907 0.289966 0.795288
0.355494 0.295245 0.794700
0.369763 0.248452 0.793720
0.381555 0.257408 0.792271
0.384243 0.269181 0.790597
0.346008 0.246411 0.799947
0.345937 0.246347 0.793997
0.379303 0.257122 0.795882
0.349385 0.294043 0.793287
0.359294 0.244521 0.794055
0.364328 0.245471 0.793692
0.350544 0.244408 0.794811
0.335245 0.257327 0.799243
0.333771 0.268630 0.799540
0.383059 0.276656 0.795034
0.378872 0.284053 0.795976
0.350573 0.292030 0.796168
0.382009 0.263449 0.798469
0.334189 0.277484 0.798237
0.373230 0.249204 0.798244
0.337138 0.279499 0.803125
0.340721 0.252997 0.803713
0.340934 0.283791 0.802962
0.344912 0.290331 0.798429
0.359461 0.293595 0.799634
0.336247 0.272459 0.805131
0.360742 0.291750 0.802815
0.354097 0.244559 0.800116
0.364870 0.244950 0.800973
0.380419 0.279429 0.798505
0.374806 0.286194 0.800512
0.369175 0.289434 0.801629
0.378448 0.254267 0.799201
0.370665 0.248530 0.802928
0.346513 0.248728 0.806093
0.380638 0.270706 0.806018
0.382058 0.272828 0.800115
0.379595 0.278755 0.803415
0.346233 0.287374 0.805735
0.351886 0.245761 0.803809
0.377846 0.256637 0.805341
0.352940 0.246991 0.807495
0.380576 0.260829 0.802114
0.336065 0.260387 0.804114
0.335063 0.267847 0.804533
0.352005 0.290742 0.804587
0.338515 0.259287 0.807126
0.378667 0.277606 0.807872
0.371652 0.285891 0.807410
0.366254 0.289262 0.806506
0.337283 0.267545 0.810135
0.340904 0.256369 0.809982
0.352037 0.288836 0.808985
0.362877 0.246020 0.805338
0.340161 0.279686 0.809188
0.346683 0.284784 0.812118
0.359843 0.289306 0.809511
0.375760 0.256575 0.810178
0.351360 0.248715 0.810720
0.379643 0.266557 0.809201
0.339590 0.266646 0.814337
0.368193 0.248746 0.808516
0.349815 0.251531 0.814728
0.342602 0.257841 0.814447
0.339018 0.273462 0.811808
0.342697 0.277466 0.815776
0.366197 0.287405 0.810696
0.377650 0.273224 0.813685
0.372738 0.282957 0.811083
0.352674 0.287285 0.812927
0.357513 0.249613 0.815620
0.377878 0.262135 0.811859
0.367914 0.284609 0.815165
0.362285 0.248492 0.811417
0.362206 0.286588 0.815347
0.367531 0.250958 0.814143
0.355874 0.251853 0.819582
0.340547 0.266828 0.817446
0.350964 0.285682 0.815465
0.340449 0.272952 0.816968
0.351067 0.253650 0.819810
0.342165 0.262585 0.819180
0.376846 0.267542 0.817112
0.375207 0.277699 0.815071
0.365847 0.252127 0.818446
0.342649 0.272619 0.820856
0.346636 0.278248 0.821169
0.362340 0.283938 0.821092
0.344178 0.261879 0.821985
0.373245 0.276105 0.821231
0.352035 0.284431 0.818734
0.374594 0.260140 0.817576
0.354730 0.282348 0.824161
0.344930 0.269360 0.825996
0.367168 0.281854 0.821731
0.362713 0.253817 0.823711
0.353654 0.254961 0.824432
0.344281 0.273872 0.823162
0.346063 0.262380 0.825536
0.347789 0.276545 0.825013
0.374936 0.270132 0.822256
0.367152 0.255926 0.823926
0.372291 0.260842 0.823074
0.349260 0.259060 0.830709
0.346961 0.275107 0.831968
0.345896 0.270685 0.831637
0.351674 0.280464 0.831210
0.374674 0.268530 0.829835
0.365230 0.282225 0.830476
0.373031 0.261488 0.830037
0.372488 0.275873 0.830699
0.356833 0.282764 0.831265
0.355330 0.254422 0.830931
0.366122 0.254781 0.830645
0.352765 0.255976 0.834448
0.352021 0.281293 0.834952
0.359802 0.283351 0.834397
0.372495 0.261130 0.834234
0.347012 0.261025 0.835662
0.368979 0.280727 0.834399
0.345236 0.264228 0.831531
0.345841 0.272302 0.834452
0.373927 0.273789 0.834428
0.374384 0.266780 0.833610
0.347827 0.277595 0.835244
0.366376 0.255532 0.833894
0.371252 0.277109 0.836832
0.344904 0.265615 0.835779
0.352277 0.280480 0.836868
0.351631 0.257024 0.836693
0.347040 0.263021 0.838882
0.346823 0.273153 0.836954
0.347355 0.276377 0.839437
0.359527 0.282022 0.837554
0.360289 0.254460 0.834255
0.374453 0.266654 0.837299
0.365378 0.282177 0.839232
0.365843 0.255275 0.837805
0.373682 0.262373 0.838941
0.373223 0.275826 0.839396
0.354254 0.254739 0.838882
0.347989 0.274975 0.843039
0.346418 0.269097 0.844294
0.364901 0.281733 0.842682
0.355465 0.281545 0.842856
0.373808 0.274189 0.841972
0.366320 0.255318 0.842489
0.356345 0.254968 0.843097
0.348981 0.261557 0.843026
0.372646 0.262109 0.842360
0.364017 0.269412 0.843542
0.348440 0.271023 0.844737
0.348050 0.263394 0.844519
3 542 558 564
3 103 108 113
3 565 564 575
3 565 575 583
3 602 588 612
3 645 642 650
3 770 769 786
3 614 615 619
3 581 613 619
3 564 558 575
3 583 575 599
3 575 584 599
3 507 499 516
3 783 792 795
3 42 44 57
3 57 44 73
3 44 70 73
3 125 117 133
3 125 133 147
3 435 449 450
3 435 425 449
3 425 435 450
3 472 458 475
3 612 614 633
3 614 612 615
3 484 499 507
3 527 530 546
3 507 516 517
3 252 260 261
3 602 612 633
3 602 633 642
3 418 429 452
3 449 434 452
3 415 418 452
3 434 415 452
3 762 751 764
3 563 542 564
3 563 564 565
3 482 477 491
3 413 387 423
3 575 558 584
3 527 495 530
3 783 785 792
3 226 231 252
3 789 780 793
3 108 97 115
3 689 660 691
3 33 57 73
3 786 789 796
3 786 769 789
3 438 432 455
3 813 795 817
3 542 553 558
3 555 574 594
3 317 338 342
3 588 597 615
3 80 70 91
3 80 91 94
3 516 521 533
3 517 516 533
3 616 599 623
3 517 542 563
3 289 293 307
3 370 380 384
3 620 642 645
3 287 286 311
3 648 633 649
3 633 614 649
3 417 430 456
3 131 123 150
3 105 95 118
3 418 402 429
3 402 417 429
3 579 581 619
3 552 579 619
3 579 552 581
3 552 562 581
3 201 217 219
3 470 477 482
3 614 619 632
3 147 133 151
3 133 119 151
3 117 119 133
3 140 130 155
3 97 95 105
3 589 591 601
3 223 225 245
3 741 745 761
3 731 737 739
3 285 268 288
3 797 806 807
3 807 806 816
3 18 13 43
3 771 776 780
3 769 780 789
3 769 771 780
3 378 366 381
3 188 196 201
3 201 196 217
3 627 636 653
3 606 617 626
3 589 582 591
3 103 93 108
3 71 93 103
3 76 71 103
3 182 188 201
3 296 295 300
3 306 292 313
3 124 125 147
3 124 116 125
3 402 397 417
3 608 620 623
3 673 666 681
3 23 75 82
3 203 204 216
3 616 640 641
3 103 113 117
3 685 664 687
3 612 588 615
3 572 560 590
3 758 750 762
3 774 782 788
3 720 734 743
3 714 713 731
3 446 445 448
3 446 448 471
3 453 446 471
3 466 464 490
3 726 738 740
3 683 664 685
3 122 141 143
3 285 301 302
3 285 288 301
3 302 301 318
3 790 799 802
3 311 322 329
3 441 456 468
3 15 12 69
3 12 15 34
3 15 9 34
3 52 26 88
3 254 262 273
3 650 660 689
3 645 650 666
3 666 650 689
3 613 598 631
3 439 423 440
3 588 602 603
3 92 96 116
3 303 283 306
3 262 279 281
3 304 307 325
3 424 437 443
3 642 633 650
3 364 358 373
3 163 152 177
3 177 152 191
3 729 730 744
3 3 11 22
3 222 234 238
3 726 718 738
3 149 138 163
3 138 135 163
3 785 770 786
3 582 565 583
3 248 245 280
3 245 253 280
3 704 699 706
3 706 699 723
3 703 710 717
3 29 30 53
3 29 7 30
3 96 103 117
3 119 134 151
3 117 113 119
3 113 115 119
3 113 108 115
3 119 115 134
3 591 583 599
3 721 731 739
3 790 778 799
3 652 674 675
3 742 725 744
3 742 744 750
3 793 780 798
3 780 781 798
3 780 776 781
3 764 769 770
3 750 751 762
3 506 507 517
3 506 484 507
3 122 110 141
3 300 295 344
3 768 763 785
3 484 491 499
3 484 482 491
3 499 491 510
3 499 510 516
3 540 534 570
3 226 252 261
3 416 392 420
3 420 392 421
3 570 534 572
3 105 118 123
3 358 363 373
3 553 543 557
3 115 128 134
3 115 105 128
3 694 679 701
3 640 666 673
3 429 417 456
3 567 588 603
3 246 295 296
3 750 730 751
3 744 730 750
3 792 786 796
3 785 786 792
3 794 783 795
3 299 309 315
3 648 649 661
3 620 602 642
3 615 552 619
3 599 608 623
3 620 616 623
3 661 649 665
3 73 70 80
3 670 699 704
3 787 772 788
3 775 772 787
3 721 714 731
3 709 690 715
3 458 465 475
3 458 426 465
3 437 426 458
3 437 458 472
3 560 561 595
3 457 470 482
3 97 105 115
3 400 396 419
3 425 415 434
3 425 434 449
3 245 225 253
3 633 648 650
3 660 648 661
3 650 648 660
3 17 13 18
3 234 257 271
3 238 234 271
3 116 96 117
3 116 117 125
3 671 670 676
3 404 385 409
3 368 387 413
3 261 260 265
3 93 97 108
3 294 289 307
3 530 540 546
3 210 201 219
3 153 160 167
3 253 272 280
3 592 593 625
3 592 625 627
3 627 625 636
3 247 255 268
3 691 714 721
3 260 252 271
3 728 725 742
3 795 792 796
3 734 739 743
3 472 475 495
3 660 661 691
3 681 689 691
3 681 666 689
3 246 274 295
3 348 370 384
3 184 200 208
3 782 790 802
3 678 690 709
3 365 366 378
3 694 701 702
3 696 713 714
3 704 706 718
3 528 527 546
3 283 292 306
3 123 137 150
3 574 570 594
3 282 308 310
3 455 432 460
3 772 774 788
3 758 762 764
3 378 381 410
3 591 616 641
3 635 591 641
3 640 635 641
3 782 774 790
3 39 15 83
3 9 15 39
3 15 69 83
3 304 325 337
3 323 304 337
3 373 397 402
3 331 318 334
3 324 318 331
3 271 286 287
3 613 631 632
3 534 549 572
3 459 484 506
3 543 525 557
3 342 338 359
3 131 150 175
3 307 293 320
3 307 320 325
3 533 521 543
3 525 532 556
3 47 53 67
3 36 47 67
3 725 715 729
3 725 729 744
3 272 254 273
3 272 273 290
3 272 290 299
3 387 406 423
3 413 423 439
3 715 690 729
3 717 710 721
3 205 170 210
3 581 562 596
3 556 552 615
3 597 556 615
3 198 202 218
3 590 560 595
3 396 413 419
3 186 191 192
3 317 323 338
3 316 312 317
3 316 317 342
3 312 310 317
3 532 552 556
3 276 303 305
3 276 283 303
3 70 81 91
3 589 601 622
3 781 784 798
3 781 773 784
3 776 773 781
3 319 332 352
3 281 279 282
3 407 390 446
3 399 407 446
3 10 26 52
3 682 672 707
3 700 682 707
3 405 432 438
3 438 455 481
3 517 533 553
3 542 517 553
3 731 733 737
3 731 713 733
3 3 5 11
3 665 695 696
3 661 665 696
3 555 594 600
3 555 546 574
3 289 287 293
3 23 60 75
3 674 652 676
3 425 450 457
3 120 140 155
3 94 130 140
3 71 23 82
3 11 23 71
3 789 793 796
3 729 719 730
3 603 602 608
3 608 602 620
3 576 578 604
3 577 576 604
3 441 468 469
3 25 20 36
3 14 20 25
3 516 510 521
3 4 17 18
3 703 717 720
3 605 606 626
3 184 173 200
3 127 122 143
3 240 223 245
3 240 245 248
3 223 200 225
3 208 200 223
3 760 741 761
3 745 753 761
3 570 572 590
3 659 679 694
3 324 331 348
3 72 73 80
3 33 46 57
3 247 220 255
3 234 222 237
3 524 529 545
3 591 599 616
3 221 249 256
3 465 466 490
3 206 190 207
3 190 180 207
3 601 591 635
3 685 687 719
3 793 798 809
3 806 797 809
3 797 793 809
3 806 809 815
3 806 815 816
3 816 815 817
3 796 793 797
3 293 287 311
3 286 291 311
3 370 334 380
3 470 450 477
3 450 454 477
3 457 450 470
3 454 469 477
3 716 715 725
3 711 715 716
3 92 37 96
3 83 69 85
3 83 85 98
3 68 83 98
3 329 322 365
3 663 637 683
3 678 663 683
3 629 637 663
3 219 217 232
3 209 210 219
3 209 219 232
3 257 234 269
3 234 237 269
3 659 631 662
3 632 631 659
3 441 452 456
3 452 429 456
3 101 114 126
3 436 464 466
3 143 141 165
3 653 636 675
3 606 586 617
3 626 617 628
3 697 705 707
3 672 697 707
3 686 711 716
3 686 708 711
3 708 709 715
3 711 708 715
3 309 299 312
3 646 671 676
3 619 613 632
3 474 463 492
3 628 627 653
3 390 385 404
3 432 428 460
3 739 737 752
3 203 168 204
3 722 726 740
3 153 136 159
3 136 144 159
3 216 204 227
3 200 203 216
3 200 216 225
3 519 511 544
3 511 504 544
3 109 99 121
3 109 121 136
3 121 99 129
3 199 222 238
3 95 104 118
3 256 270 283
3 256 249 270
3 277 285 302
3 11 5 23
3 292 299 315
3 315 309 335
3 309 312 316
3 309 316 335
3 212 198 218
3 89 101 126
3 98 138 149
3 98 135 138
3 303 306 319
3 319 313 332
3 306 313 319
3 170 182 210
3 549 560 572
3 145 124 147
3 90 72 112
3 72 80 112
3 687 664 688
3 218 243 244
3 244 243 277
3 510 494 532
3 387 398 406
3 763 758 785
3 758 770 785
3 568 539 571
3 523 539 568
3 638 622 651
3 463 467 492
3 277 268 285
3 417 397 430
3 197 190 206
3 675 674 693
3 636 652 675
3 549 541 560
3 560 541 561
3 439 440 478
3 137 153 167
3 13 25 43
3 188 175 196
3 696 695 713
3 259 248 280
3 69 79 236
3 738 735 740
3 740 735 749
3 9 18 43
3 9 24 34
3 24 9 43
3 19 10 52
3 423 406 440
3 406 431 440
3 218 202 220
3 198 164 202
3 590 622 638
3 730 720 743
3 533 543 553
3 139 114 149
3 139 149 172
3 500 483 514
3 481 483 500
3 337 358 364
3 427 419 436
3 427 436 466
3 424 404 437
3 443 437 461
3 461 437 472
3 777 768 779
3 777 779 799
3 795 807 817
3 807 816 817
3 273 262 281
3 273 281 290
3 320 311 329
3 311 291 322
3 293 311 320
3 707 705 724
3 700 707 724
3 347 326 360
3 326 344 360
3 344 343 360
3 343 351 360
3 271 257 286
3 313 328 332
3 353 328 411
3 332 328 353
3 352 332 353
3 640 645 666
3 582 583 591
3 471 488 518
3 453 471 518
3 448 473 488
3 471 448 488
3 295 274 344
3 11 6 22
3 399 446 453
3 390 445 446
3 779 768 785
3 783 779 785
3 779 783 794
3 761 763 768
3 540 570 574
3 137 136 153
3 483 485 514
3 262 227 279
3 101 100 114
3 89 100 101
3 126 114 139
3 254 250 262
3 250 227 262
3 584 603 608
3 584 567 603
3 599 584 608
3 553 557 567
3 558 553 567
3 558 567 584
3 340 319 352
3 49 45 62
3 48 45 49
3 404 409 437
3 385 377 409
3 658 670 671
3 676 670 692
3 749 741 760
3 735 741 749
3 331 334 370
3 348 331 370
3 802 799 811
3 266 267 279
3 227 266 279
3 266 241 267
3 529 537 545
3 524 545 548
3 304 294 307
3 282 294 304
3 14 10 19
3 150 174 175
3 450 449 454
3 243 247 268
3 255 246 268
3 747 736 756
3 679 669 701
3 334 318 347
3 769 764 771
3 673 681 688
3 655 673 688
3 665 680 695
3 167 160 187
3 736 722 756
3 621 634 643
3 621 643 646
3 536 547 582
3 536 493 547
3 493 506 547
3 637 638 651
3 637 629 638
3 656 654 677
3 658 656 677
3 651 655 664
3 664 655 688
3 523 518 528
3 518 523 526
3 41 58 63
3 40 41 63
3 40 32 41
3 316 342 354
3 335 316 354
3 354 342 359
3 4 8 17
3 703 688 710
3 35 17 56
3 35 56 78
3 17 8 56
3 357 396 400
3 347 360 369
3 360 351 369
3 318 326 347
3 281 282 310
3 53 30 59
3 697 684 705
3 672 684 697
3 176 170 205
3 209 205 210
3 205 209 224
3 224 209 235
3 214 229 239
3 761 768 777
3 500 514 524
3 524 514 529
3 239 229 246
3 279 267 282
3 193 184 208
3 571 555 600
3 50 27 62
3 21 27 50
3 523 568 576
3 651 635 655
3 637 651 664
3 637 664 683
3 2 14 25
3 2 0 14
3 338 323 346
3 206 207 233
3 221 256 263
3 487 474 492
3 475 489 495
3 192 214 239
3 230 192 239
3 229 214 236
3 561 589 595
3 30 7 37
3 37 7 38
3 6 7 29
3 7 6 55
3 38 7 55
3 779 794 799
3 771 757 776
3 32 40 72
3 430 412 444
3 230 239 255
3 239 246 255
3 463 462 467
3 408 392 416
3 391 408 416
3 351 392 408
3 391 351 408
3 784 775 787
3 204 205 224
3 204 224 227
3 227 224 235
3 172 177 189
3 172 163 177
3 214 191 236
3 191 171 236
3 192 191 214
3 598 607 644
3 607 605 630
3 607 630 644
3 454 441 469
3 452 441 454
3 539 546 571
3 539 528 546
3 568 571 578
3 24 43 61
3 43 25 61
3 618 654 656
3 677 654 709
3 649 632 659
3 614 632 649
3 760 777 778
3 232 226 261
3 611 590 638
3 629 611 638
3 397 412 430
3 723 727 735
3 723 716 727
3 735 727 741
3 647 653 667
3 647 628 653
3 667 653 675
3 85 69 236
3 712 732 748
3 748 732 765
3 182 201 210
3 747 756 765
3 732 747 765
3 732 736 747
3 314 303 319
3 314 319 340
3 305 303 314
3 760 761 777
3 10 0 26
3 26 0 87
3 88 26 109
3 91 81 106
3 812 813 815
3 815 813 817
3 218 220 243
3 212 218 244
3 337 333 358
3 358 333 363
3 58 61 67
3 61 25 67
3 157 176 204
3 168 157 204
3 350 354 368
3 362 359 398
3 349 350 368
3 349 335 350
3 350 335 354
3 359 346 382
3 383 355 386
3 383 386 399
3 383 399 421
3 386 395 399
3 395 390 407
3 399 395 407
3 376 385 390
3 393 416 428
3 405 403 428
3 399 453 497
3 392 383 421
3 374 377 385
3 374 353 377
3 377 353 411
3 352 353 374
3 376 374 385
3 328 379 411
3 379 400 411
3 486 490 509
3 490 498 509
3 501 509 549
3 501 486 509
3 509 541 549
3 498 536 541
3 509 498 541
3 561 536 582
3 541 536 561
3 561 582 589
3 594 570 611
3 594 611 629
3 594 629 639
3 570 590 611
3 681 691 710
3 710 691 721
3 691 661 696
3 687 688 703
3 498 493 536
3 493 478 506
3 626 628 668
3 605 626 630
3 728 742 746
3 356 374 376
3 356 376 395
3 634 618 656
3 634 656 658
3 496 480 504
3 485 480 496
3 447 442 485
3 420 442 447
3 442 420 497
3 765 756 767
3 754 748 765
3 754 765 775
3 759 754 775
3 752 737 759
3 668 647 672
3 628 647 668
3 668 672 682
3 657 668 682
3 657 626 668
3 338 346 359
3 323 337 364
3 346 323 364
3 325 333 337
3 412 410 433
3 393 391 416
3 626 657 669
3 630 626 669
3 347 369 375
3 334 347 375
3 334 375 380
3 593 577 609
3 566 526 577
3 566 577 593
3 420 421 497
3 264 297 344
3 264 242 297
3 181 164 198
3 426 422 465
3 411 400 422
3 409 377 411
3 646 643 671
3 397 401 412
3 631 598 662
3 659 662 679
3 317 308 323
3 310 308 317
3 634 658 671
3 643 634 671
3 26 87 109
3 87 99 109
3 87 66 99
3 114 98 149
3 243 220 247
3 449 452 454
3 496 504 511
3 511 519 520
3 496 511 520
3 485 496 520
3 345 365 372
3 773 775 784
3 765 772 775
3 621 618 634
3 733 712 748
3 712 724 732
3 598 596 607
3 400 419 427
3 436 419 439
3 216 227 250
3 764 757 771
3 647 667 672
3 593 609 625
3 625 624 652
3 609 624 625
3 58 33 63
3 46 33 58
3 616 620 640
3 640 620 645
3 13 2 25
3 1 2 13
3 1 13 17
3 199 195 212
3 160 195 199
3 195 181 212
3 181 198 212
3 160 181 195
3 199 212 222
3 93 82 97
3 71 82 93
3 82 95 97
3 209 232 235
3 758 764 770
3 132 124 145
3 723 735 738
3 486 465 490
3 753 758 763
3 753 750 758
3 746 750 753
3 746 742 750
3 535 550 587
3 550 569 587
3 535 508 550
3 6 11 54
3 6 54 55
3 692 670 704
3 235 241 266
3 171 85 236
3 251 240 259
3 258 251 259
3 233 240 251
3 240 248 259
3 157 145 176
3 480 497 504
3 480 442 497
3 495 489 530
3 473 495 505
3 649 659 665
3 134 131 175
3 55 54 71
3 54 11 71
3 55 71 76
3 290 281 312
3 778 777 799
3 94 91 130
3 336 315 349
3 315 335 349
3 336 349 357
3 44 48 70
3 44 42 48
3 357 349 367
3 135 152 163
3 152 135 171
3 252 231 271
3 231 238 271
3 618 600 639
3 600 594 639
3 618 639 654
3 600 618 621
3 326 300 344
3 488 513 518
3 376 390 395
3 186 192 230
3 481 500 512
3 481 455 483
3 0 10 14
3 635 640 673
3 655 635 673
3 654 663 678
3 811 812 815
3 799 805 812
3 812 795 813
3 222 212 237
3 56 8 78
3 412 401 414
3 193 208 240
3 208 223 240
3 604 578 621
3 578 600 621
3 577 604 609
3 609 604 624
3 624 604 646
3 604 621 646
3 521 510 543
3 702 700 712
3 712 700 724
3 702 712 713
3 713 712 733
3 701 700 702
3 705 722 736
3 658 677 686
3 773 759 775
3 752 759 773
3 27 49 62
3 49 27 84
3 699 716 723
3 403 393 428
3 546 540 574
3 772 767 774
3 132 145 157
3 136 121 144
3 121 129 144
3 795 797 807
3 795 796 797
3 187 199 213
3 187 160 199
3 194 187 213
3 213 199 238
3 58 41 61
3 120 155 161
3 325 320 333
3 318 300 326
3 548 545 573
3 559 548 573
3 573 545 586
3 559 573 605
3 550 548 559
3 1 17 35
3 46 51 62
3 51 50 62
3 50 51 59
3 59 51 67
3 53 59 67
3 45 46 62
3 45 42 46
3 42 45 48
3 51 46 58
3 35 78 89
3 89 78 100
3 8 68 78
3 78 68 100
3 397 363 401
3 373 363 397
3 215 230 255
3 225 216 250
3 585 566 592
3 551 566 585
3 166 173 184
3 183 166 184
3 183 184 193
3 298 277 302
3 278 277 298
3 207 211 233
3 340 352 374
3 356 340 374
3 514 520 529
3 514 485 520
3 129 126 146
3 86 126 129
3 74 35 89
3 86 74 89
3 86 89 126
3 144 129 146
3 126 139 146
3 436 451 464
3 436 439 451
3 25 36 67
3 686 677 708
3 708 677 709
3 178 180 185
3 478 459 506
3 274 264 344
3 554 551 585
3 537 551 554
3 537 538 551
3 545 537 554
3 545 554 586
3 718 706 738
3 706 723 738
3 684 675 698
3 667 675 684
3 158 170 176
3 150 137 167
3 84 102 107
3 683 685 690
3 253 254 272
3 253 250 254
3 576 568 578
3 674 676 692
3 111 92 132
3 241 265 267
3 657 682 701
3 669 657 701
3 147 151 158
3 691 696 714
3 624 646 652
3 107 110 122
3 107 102 110
3 8 39 68
3 68 39 83
3 518 513 528
3 799 794 805
3 207 180 211
3 70 48 81
3 268 246 288
3 246 229 274
3 363 372 401
3 595 589 622
3 590 595 622
3 422 400 427
3 727 716 728
3 104 109 136
3 104 136 137
3 774 778 790
3 506 517 563
3 81 48 84
3 453 518 526
3 665 659 680
3 440 431 457
3 678 683 690
3 523 528 539
3 508 476 512
3 476 481 512
3 508 512 550
3 467 476 508
3 398 389 406
3 382 389 398
3 359 382 398
3 805 795 812
3 794 795 805
3 761 753 763
3 38 55 76
3 680 694 695
3 695 694 702
3 538 544 551
3 551 544 566
3 693 692 704
3 693 704 718
3 442 480 485
3 444 433 462
3 28 21 50
3 28 50 59
3 30 28 59
3 5 3 19
3 23 5 60
3 457 482 484
3 104 88 109
3 554 585 586
3 693 718 726
3 698 693 726
3 380 375 393
3 380 393 403
3 719 720 730
3 37 38 96
3 38 76 96
3 573 586 606
3 605 573 606
3 586 610 617
3 617 610 628
3 610 627 628
3 387 362 398
3 409 411 426
3 152 171 191
3 267 265 294
3 282 267 294
3 227 235 266
3 368 362 387
3 690 685 719
3 281 310 312
3 22 6 29
3 512 500 524
3 737 733 748
3 737 748 759
3 748 754 759
3 233 251 258
3 416 420 447
3 74 66 87
3 0 74 87
3 670 686 699
3 699 686 716
3 670 658 686
3 716 725 728
3 504 526 544
3 544 526 566
3 755 752 757
3 739 752 755
3 743 739 755
3 730 743 755
3 91 106 130
3 512 524 548
3 244 277 278
3 269 278 291
3 269 244 278
3 286 269 291
3 291 278 298
3 322 291 341
3 235 232 241
3 459 457 484
3 461 472 495
3 473 461 495
3 182 162 188
3 162 175 188
3 33 40 63
3 30 37 77
3 448 443 461
3 448 461 473
3 46 42 57
3 688 681 710
3 301 300 318
3 298 302 318
3 489 486 501
3 598 644 662
3 365 378 414
3 378 410 414
3 257 269 286
3 166 165 173
3 143 165 166
3 419 413 439
3 537 519 538
3 529 519 537
3 520 519 529
3 538 519 544
3 292 284 299
3 644 630 669
3 298 318 324
3 585 592 627
3 610 585 627
3 96 76 103
3 185 180 190
3 179 185 190
3 179 190 197
3 260 289 294
3 265 260 294
3 241 261 265
3 241 232 261
3 478 493 498
3 464 478 498
3 680 659 694
3 734 721 739
3 65 77 111
3 77 92 111
3 510 525 543
3 141 132 165
3 622 601 635
3 622 635 651
3 363 333 372
3 333 345 372
3 654 678 709
3 118 104 123
3 409 426 437
3 682 700 701
3 180 183 193
3 180 178 183
3 180 193 211
3 178 166 183
3 488 473 513
3 225 250 253
3 652 646 676
3 51 58 67
3 550 559 569
3 145 158 176
3 145 147 158
3 154 179 236
3 406 425 431
3 406 389 425
3 357 367 396
3 90 142 236
3 142 154 236
3 154 161 185
3 179 154 185
3 112 120 142
3 79 90 236
3 90 112 142
3 142 120 154
3 154 120 161
3 161 178 185
3 410 412 414
3 75 60 88
3 107 122 127
3 106 107 127
3 120 94 140
3 175 194 196
3 164 172 189
3 164 189 202
3 110 102 111
3 464 451 478
3 328 361 379
3 379 361 400
3 361 357 400
3 175 174 194
3 260 287 289
3 260 271 287
3 756 749 767
3 8 4 9
3 705 698 726
3 722 705 726
3 280 272 284
3 259 280 284
3 66 74 86
3 146 139 172
3 258 259 284
3 270 258 284
3 148 162 182
3 675 693 698
3 242 228 263
3 228 221 263
3 206 221 228
3 596 587 607
3 732 724 736
3 636 625 652
3 431 425 457
3 130 156 169
3 106 127 130
3 130 127 156
3 765 767 772
3 722 740 756
3 757 773 776
3 123 104 137
3 81 84 107
3 48 49 84
3 32 72 90
3 411 422 426
3 215 186 230
3 569 559 605
3 569 605 607
3 587 569 607
3 497 453 526
3 243 268 277
3 159 144 164
3 662 669 679
3 77 37 92
3 299 290 312
3 169 166 178
3 578 571 600
3 371 384 403
3 811 799 812
3 483 460 485
3 428 416 460
3 422 427 466
3 465 422 466
3 475 465 489
3 465 486 489
3 467 462 476
3 462 438 476
3 523 576 577
3 354 362 368
3 284 272 299
3 751 730 755
3 687 703 719
3 719 703 720
3 242 263 297
3 263 275 297
3 127 143 156
3 1 0 2
3 0 1 74
3 455 460 483
3 410 405 433
3 211 193 240
3 233 211 240
3 291 298 341
3 298 324 341
3 1 35 74
3 460 447 485
3 416 447 460
3 774 767 778
3 405 428 432
3 150 167 174
3 283 270 292
3 135 85 171
3 100 98 114
3 98 85 135
3 68 98 100
3 586 585 610
3 473 505 513
3 740 749 756
3 355 339 386
3 339 356 395
3 386 339 395
3 106 81 107
3 164 146 172
3 695 702 713
3 196 194 213
3 196 213 231
3 231 213 238
3 757 752 773
3 144 146 164
3 525 510 532
3 328 336 361
3 336 357 361
3 440 457 459
3 440 459 478
3 237 212 244
3 433 405 438
3 433 438 462
3 724 705 736
3 371 348 384
3 674 692 693
3 341 324 348
3 149 163 172
3 451 439 478
3 672 667 684
3 156 143 169
3 143 166 169
3 354 359 362
3 270 284 292
3 151 148 158
3 158 148 170
3 170 148 182
3 204 176 205
3 322 341 366
3 365 322 366
3 390 404 424
3 390 424 445
3 276 256 283
3 275 276 297
3 263 256 276
3 275 263 276
3 546 555 571
3 110 111 141
3 111 132 141
3 159 164 181
3 476 438 481
3 526 523 577
3 684 698 705
3 421 399 497
3 66 86 99
3 512 548 550
3 80 94 112
3 396 368 413
3 367 368 396
3 367 349 368
3 381 371 403
3 236 179 242
3 179 197 242
3 165 157 173
3 132 157 165
3 372 365 401
3 401 365 414
3 174 187 194
3 174 167 187
3 320 329 333
3 64 65 111
3 102 64 111
3 99 86 129
3 112 94 120
3 237 244 269
3 534 501 549
3 157 168 173
3 403 405 410
3 381 403 410
3 504 497 526
3 5 19 52
3 5 52 60
3 60 52 88
3 9 4 18
3 24 12 34
3 16 12 24
3 12 16 79
3 69 12 79
3 40 33 73
3 72 40 73
3 105 123 128
3 128 123 131
3 128 131 134
3 148 134 175
3 162 148 175
3 134 148 151
3 177 186 189
3 189 186 215
3 186 177 191
3 288 296 301
3 296 300 301
3 288 246 296
3 341 348 381
3 366 341 381
3 348 371 381
3 430 444 456
3 456 444 474
3 468 456 474
3 479 474 487
3 468 474 479
3 491 477 503
3 491 503 510
3 477 469 503
3 503 494 510
3 469 494 503
3 487 502 515
3 515 502 535
3 531 515 535
3 494 487 515
3 513 505 527
3 513 527 528
3 505 495 527
3 522 531 552
3 532 522 552
3 522 515 531
3 494 522 532
3 494 515 522
3 552 531 562
3 531 535 562
3 530 489 540
3 489 534 540
3 489 501 534
3 525 556 597
3 580 525 597
3 588 580 597
3 567 580 588
3 557 525 580
3 567 557 580
3 535 587 596
3 562 535 596
3 547 565 582
3 547 563 565
3 547 506 563
3 592 566 593
3 639 629 663
3 654 639 663
3 745 728 746
3 727 728 745
3 741 727 745
3 217 196 231
3 226 217 231
3 217 226 232
3 469 468 479
3 469 479 494
3 479 487 494
3 751 755 757
3 751 757 764
3 445 443 448
3 424 443 445
3 47 29 53
3 36 22 47
3 22 29 47
3 8 9 39
3 581 596 598
3 581 598 613
3 155 130 169
3 155 169 178
3 161 155 178
3 308 304 323
3 282 304 308
3 20 22 36
3 14 19 20
3 20 3 22
3 19 3 20
3 720 717 734
3 717 721 734
3 384 380 403
3 345 329 365
3 333 329 345
3 200 168 203
3 202 215 220
3 202 189 215
3 749 766 767
3 749 760 766
3 767 766 778
3 766 760 778
3 160 159 181
3 153 159 160
3 197 206 228
3 197 228 242
3 330 355 383
3 690 719 729
3 444 462 463
3 444 463 474
3 173 168 200
3 745 746 753
3 364 373 388
3 346 364 388
3 382 388 389
3 382 346 388
3 388 373 402
3 389 388 394
3 388 402 418
3 394 388 415
3 415 388 418
3 389 394 425
3 394 415 425
3 351 343 392
3 343 383 392
3 369 351 391
3 375 369 391
3 375 391 393
3 662 644 669
3 92 124 132
3 92 116 124
3 412 433 444
3 313 315 336
3 313 292 315
3 328 313 336
3 220 215 255
3 84 64 102
3 27 64 84
3 27 21 64
3 249 258 270
3 249 233 258
3 221 233 249
3 221 206 233
3 79 32 90
3 41 32 79
3 16 41 79
3 16 24 41
3 41 24 61
3 490 464 498
3 229 236 264
3 229 264 274
3 236 242 264
3 82 75 88
3 82 88 104
3 95 82 104
3 487 492 502
3 492 467 508
3 502 492 508
3 502 508 535
3 64 31 65
3 21 31 64
3 21 28 31
3 28 30 31
3 31 30 77
3 65 31 77
3 321 314 327
3 327 314 340
3 339 327 340
3 339 340 356
3 330 327 339
3 330 339 355
3 321 327 330
3 297 321 330
3 297 305 321
3 305 314 321
3 297 276 305
3 343 344 383
3 344 297 383
3 297 330 383
3 787 788 800
3 787 800 804
3 800 803 804
3 800 782 803
3 788 782 800
3 803 811 814
3 804 803 810
3 810 803 814
3 782 802 803
3 803 802 811
3 814 811 815
3 808 810 814
3 808 814 815
3 808 804 810
3 791 787 804
3 801 804 808
3 801 791 804
3 784 787 791
3 784 791 801
3 801 808 809
3 809 808 815
3 798 784 801
3 798 801 809
