ply
format ascii 1.0
comment VCGLIB generated
element vertex 616
property float x
property float y
property float z
element face 1228
property list uchar int vertex_indices
end_header
0.248173 0.241350 0.623933
0.259416 0.235779 0.624991
0.253932 0.274314 0.624831
0.260134 0.226783 0.625804
0.246139 0.248265 0.623190
0.253961 0.244215 0.625037
0.251911 0.252565 0.625371
0.257026 0.257378 0.628925
0.249919 0.266496 0.624206
0.275886 0.225865 0.625194
0.248254 0.276248 0.624179
0.257192 0.287925 0.625763
0.266133 0.285312 0.625621
0.278362 0.288505 0.626321
0.289653 0.288784 0.626737
0.286650 0.224100 0.626881
0.268197 0.231826 0.625943
0.265687 0.239325 0.628373
0.264272 0.277115 0.628275
0.287064 0.229136 0.626753
0.302414 0.233251 0.627516
0.259327 0.247389 0.628643
0.293252 0.283341 0.628027
0.285288 0.293761 0.628116
0.266218 0.224148 0.625577
0.255118 0.230009 0.625632
0.274098 0.237530 0.630098
0.311670 0.243294 0.629363
0.310549 0.253842 0.628472
0.314026 0.261573 0.629198
0.295546 0.279946 0.628723
0.274274 0.282674 0.628255
0.304789 0.282457 0.628360
0.298693 0.288292 0.628815
0.268774 0.222818 0.628437
0.285625 0.221704 0.628369
0.293435 0.224198 0.631149
0.304619 0.231159 0.632328
0.303247 0.240672 0.628379
0.242922 0.264573 0.624596
0.260538 0.267100 0.630428
0.308603 0.269898 0.627874
0.308835 0.277787 0.629309
0.288441 0.279746 0.630260
0.265764 0.292334 0.626896
0.298336 0.226886 0.628645
0.295361 0.236168 0.628480
0.304273 0.267301 0.629562
0.292523 0.292039 0.630078
0.248732 0.236650 0.627565
0.313764 0.247195 0.632736
0.314369 0.253837 0.630116
0.312758 0.271095 0.631041
0.270003 0.270495 0.634694
0.274696 0.273900 0.634071
0.245970 0.241446 0.626880
0.303059 0.247861 0.629577
0.249919 0.282232 0.627209
0.282384 0.222331 0.630712
0.289861 0.236627 0.629567
0.243873 0.246278 0.627644
0.303144 0.255113 0.630348
0.309867 0.276313 0.636687
0.272768 0.244221 0.634785
0.298212 0.250768 0.631876
0.262870 0.258928 0.634259
0.289559 0.222934 0.632776
0.311760 0.241996 0.633225
0.242383 0.251844 0.626906
0.297579 0.265749 0.632148
0.246839 0.277409 0.627009
0.298894 0.288786 0.636291
0.308300 0.235713 0.631322
0.310307 0.239916 0.635578
0.264771 0.250075 0.633491
0.314794 0.258304 0.636729
0.244680 0.272957 0.627680
0.258608 0.226896 0.635266
0.265859 0.256960 0.637737
0.313681 0.267451 0.636926
0.285978 0.273740 0.633948
0.312293 0.270573 0.642307
0.278661 0.222859 0.629244
0.267600 0.223157 0.634902
0.298591 0.226914 0.636159
0.289307 0.243941 0.632993
0.260184 0.290417 0.631860
0.271492 0.293997 0.627187
0.264962 0.223692 0.635986
0.243167 0.247168 0.635170
0.242786 0.268167 0.630827
0.265479 0.264884 0.635298
0.300079 0.227662 0.647207
0.308625 0.236425 0.644073
0.312638 0.244687 0.641011
0.274151 0.247724 0.639440
0.314088 0.250955 0.642793
0.266813 0.223457 0.638927
0.272959 0.222217 0.637818
0.283830 0.244460 0.635223
0.258176 0.289854 0.640858
0.292506 0.224076 0.643973
0.251968 0.231854 0.637848
0.245525 0.240559 0.637839
0.241542 0.257547 0.632023
0.290811 0.262005 0.637673
0.268809 0.253679 0.640319
0.290536 0.252268 0.636699
0.281446 0.268786 0.639714
0.255508 0.287848 0.632955
0.290047 0.223477 0.641183
0.260557 0.225454 0.641319
0.314204 0.263540 0.640335
0.275161 0.267192 0.641475
0.245402 0.275729 0.636789
0.249273 0.282057 0.636503
0.291027 0.292566 0.638863
0.281530 0.248249 0.640342
0.283973 0.222447 0.639811
0.242172 0.247187 0.640664
0.268762 0.261866 0.640731
0.305907 0.282376 0.634765
0.311784 0.242750 0.649166
0.243040 0.271114 0.638232
0.241119 0.264613 0.639346
0.285735 0.294062 0.638315
0.278185 0.261590 0.646061
0.299699 0.288187 0.648414
0.247148 0.236097 0.644176
0.287973 0.258354 0.641711
0.264805 0.223228 0.642262
0.278663 0.221810 0.645486
0.291052 0.222982 0.647964
0.241922 0.244816 0.645770
0.240616 0.253619 0.641713
0.277641 0.255389 0.646528
0.246525 0.279726 0.642641
0.264251 0.292379 0.643467
0.268654 0.221174 0.651600
0.296082 0.225318 0.645033
0.304589 0.231539 0.652049
0.309260 0.277268 0.654910
0.263664 0.222879 0.646613
0.256876 0.226992 0.643673
0.251495 0.230465 0.647693
0.295855 0.290490 0.643315
0.241976 0.270177 0.643531
0.253195 0.287040 0.643641
0.269657 0.293886 0.643582
0.289897 0.293443 0.647403
0.313557 0.248463 0.649668
0.311780 0.272006 0.655107
0.287290 0.222591 0.647800
0.268041 0.222528 0.646184
0.246854 0.281510 0.648365
0.243598 0.274958 0.644959
0.295549 0.291063 0.653646
0.239600 0.261829 0.645966
0.313711 0.263335 0.656867
0.240896 0.269663 0.647509
0.262529 0.222763 0.650129
0.256303 0.226206 0.649957
0.310135 0.239436 0.659308
0.271493 0.221666 0.648689
0.241115 0.244790 0.650641
0.305689 0.282244 0.655116
0.272664 0.294905 0.648270
0.307493 0.235407 0.661711
0.311922 0.243614 0.659685
0.265424 0.222315 0.654161
0.249948 0.231225 0.655027
0.244847 0.238024 0.649216
0.242369 0.241124 0.656110
0.239887 0.250469 0.648533
0.287194 0.222104 0.661191
0.313985 0.252098 0.656919
0.312801 0.268470 0.654536
0.266413 0.293842 0.650850
0.303129 0.229883 0.657452
0.307982 0.278041 0.659526
0.258978 0.224447 0.659907
0.252808 0.287806 0.651601
0.256796 0.289905 0.649069
0.284421 0.221534 0.652654
0.313020 0.248778 0.661813
0.285243 0.294576 0.655178
0.282254 0.220682 0.661715
0.262270 0.223062 0.661455
0.264422 0.222686 0.660381
0.238979 0.255849 0.653702
0.242450 0.274892 0.651303
0.311012 0.271247 0.661405
0.244864 0.237097 0.672033
0.295494 0.225090 0.660877
0.240027 0.268850 0.654515
0.281362 0.294950 0.646588
0.244880 0.237582 0.658412
0.299302 0.287959 0.659591
0.266686 0.221553 0.660745
0.240066 0.246976 0.667990
0.250284 0.285967 0.662753
0.269860 0.221151 0.661270
0.257427 0.225951 0.668526
0.239631 0.249526 0.656681
0.299825 0.227522 0.663504
0.306377 0.235372 0.666657
0.310248 0.241336 0.664627
0.306985 0.278131 0.664736
0.284616 0.221918 0.665419
0.290874 0.222934 0.661068
0.261172 0.291775 0.649213
0.294800 0.290853 0.662079
0.238695 0.262505 0.655229
0.244894 0.279561 0.653189
0.301247 0.285466 0.664154
0.266113 0.222510 0.665615
0.288548 0.223113 0.666870
0.295118 0.225730 0.666772
0.255413 0.289270 0.661910
0.268771 0.221610 0.665707
0.240824 0.271902 0.664693
0.282370 0.294757 0.663445
0.277195 0.221282 0.666930
0.282360 0.222066 0.661950
0.309909 0.243911 0.671384
0.312435 0.263834 0.664778
0.309783 0.271909 0.666678
0.271438 0.294572 0.662715
0.287817 0.222955 0.671574
0.254619 0.227376 0.662969
0.303615 0.232389 0.670185
0.288988 0.293405 0.663169
0.264247 0.222686 0.673431
0.307359 0.238680 0.673025
0.311669 0.249349 0.668750
0.260095 0.291520 0.661952
0.266765 0.293885 0.665362
0.277067 0.294889 0.668663
0.310945 0.266929 0.671849
0.268020 0.222072 0.674991
0.242073 0.242054 0.669220
0.239718 0.268043 0.667900
0.305257 0.279672 0.669504
0.300054 0.229670 0.675229
0.311462 0.260089 0.670483
0.242709 0.275429 0.668185
0.296680 0.288506 0.669466
0.280935 0.222038 0.673677
0.238783 0.263048 0.668130
0.246381 0.281610 0.669173
0.292504 0.291140 0.668837
0.271919 0.221084 0.682112
0.285888 0.222928 0.685638
0.293834 0.225944 0.673635
0.253257 0.228509 0.672929
0.263061 0.292685 0.670249
0.305083 0.235976 0.678586
0.307554 0.240331 0.682197
0.238690 0.253745 0.669010
0.311009 0.252828 0.682394
0.308136 0.273653 0.674535
0.258030 0.290543 0.672882
0.279956 0.294845 0.678818
0.309560 0.244902 0.678331
0.266497 0.222640 0.676583
0.238102 0.257553 0.674799
0.245422 0.281049 0.674301
0.267468 0.293994 0.673937
0.282930 0.221822 0.669094
0.259996 0.224443 0.677538
0.253510 0.227688 0.679931
0.305133 0.279025 0.684452
0.240793 0.273430 0.675913
0.260402 0.292129 0.680056
0.293743 0.290190 0.682647
0.287167 0.293438 0.673512
0.297511 0.227849 0.682878
0.310265 0.248675 0.691455
0.238744 0.267141 0.676436
0.267037 0.221652 0.680238
0.304196 0.234529 0.687509
0.239433 0.247428 0.676413
0.249901 0.286486 0.677497
0.254154 0.288698 0.675115
0.283650 0.223038 0.669949
0.242560 0.238559 0.678710
0.311038 0.263575 0.686649
0.310272 0.267485 0.681519
0.274888 0.294618 0.674797
0.271290 0.221754 0.684328
0.262790 0.222703 0.681654
0.290964 0.291640 0.682253
0.296793 0.288405 0.684100
0.276192 0.222076 0.684479
0.237812 0.267120 0.682887
0.244210 0.280470 0.681788
0.258323 0.291796 0.684910
0.282418 0.221702 0.682827
0.237739 0.250714 0.681177
0.240593 0.242189 0.682834
0.308820 0.243736 0.691265
0.293455 0.225762 0.693800
0.251692 0.288383 0.683472
0.277633 0.221138 0.688200
0.246424 0.233112 0.685876
0.287316 0.293311 0.688252
0.272825 0.220677 0.686661
0.257957 0.224444 0.686709
0.239630 0.272846 0.684519
0.306451 0.238372 0.692707
0.265522 0.221882 0.685941
0.262568 0.222650 0.689484
0.242271 0.237752 0.688823
0.241949 0.277521 0.685692
0.303174 0.281539 0.691896
0.279222 0.221012 0.691461
0.311282 0.255255 0.692168
0.310856 0.262719 0.694680
0.264303 0.293866 0.685252
0.253178 0.227183 0.687773
0.236675 0.264592 0.687255
0.250327 0.288457 0.689325
0.267779 0.221245 0.690954
0.309523 0.269631 0.692317
0.283696 0.222057 0.688636
0.307730 0.274097 0.699747
0.270868 0.220522 0.698284
0.259538 0.222844 0.694422
0.238615 0.245266 0.688950
0.236881 0.252675 0.687151
0.244985 0.283363 0.689466
0.254277 0.290597 0.690312
0.262717 0.294467 0.695146
0.261981 0.221974 0.696717
0.268396 0.294811 0.687817
0.283451 0.294328 0.687161
0.288712 0.223195 0.693079
0.242014 0.236977 0.695161
0.308702 0.244041 0.696456
0.280965 0.221230 0.695420
0.303647 0.234030 0.696994
0.236223 0.254447 0.694052
0.258371 0.292937 0.693980
0.287068 0.222758 0.695960
0.251835 0.226989 0.695843
0.236031 0.261113 0.692424
0.291769 0.291496 0.699893
0.276559 0.220426 0.701604
0.265304 0.220795 0.697166
0.298221 0.228090 0.697778
0.244962 0.285004 0.696387
0.302009 0.283230 0.694932
0.295307 0.289335 0.695824
0.271965 0.295234 0.696586
0.236370 0.249126 0.697484
0.310914 0.256327 0.700885
0.238204 0.271847 0.693817
0.305520 0.277760 0.700810
0.264437 0.221737 0.693469
0.242069 0.279546 0.694480
0.249671 0.289542 0.694849
0.284355 0.294273 0.696477
0.306708 0.239380 0.702500
0.284789 0.221929 0.696016
0.238835 0.242765 0.695658
0.260569 0.221983 0.700642
0.240557 0.237621 0.702121
0.235221 0.259547 0.698164
0.310464 0.265760 0.701592
0.240044 0.276680 0.696624
0.254942 0.292080 0.700087
0.257712 0.222862 0.700894
0.288957 0.223028 0.700941
0.290979 0.223744 0.707389
0.249103 0.228487 0.698990
0.299281 0.228887 0.705120
0.287855 0.293212 0.700656
0.303930 0.280482 0.707976
0.282263 0.221135 0.700082
0.310638 0.260227 0.706713
0.236473 0.267920 0.697530
0.268867 0.295933 0.701247
0.269218 0.220054 0.701172
0.258621 0.222332 0.704914
0.259810 0.223137 0.699681
0.308965 0.245051 0.706475
0.284021 0.295020 0.703570
0.278127 0.295743 0.699661
0.262916 0.221353 0.702611
0.303436 0.234408 0.707146
0.250720 0.290472 0.699506
0.236669 0.270829 0.701834
0.289509 0.292950 0.705032
0.265588 0.220698 0.704122
0.285105 0.221622 0.706236
0.310094 0.268152 0.706855
0.242347 0.282009 0.702741
0.295799 0.289384 0.701442
0.252794 0.225279 0.704036
0.249381 0.226607 0.709508
0.245444 0.286272 0.703892
0.306138 0.276588 0.713645
0.254645 0.292399 0.707411
0.237471 0.243469 0.703281
0.310183 0.250535 0.704548
0.249307 0.289141 0.707654
0.296521 0.226482 0.710246
0.244792 0.231323 0.705216
0.238952 0.238708 0.707026
0.238811 0.276015 0.703669
0.281409 0.295765 0.711093
0.234377 0.253370 0.705236
0.295746 0.289303 0.715696
0.307421 0.240585 0.711487
0.235160 0.267366 0.705586
0.237905 0.275447 0.708864
0.264289 0.295589 0.706068
0.265338 0.220447 0.709334
0.253910 0.223250 0.712809
0.237101 0.240785 0.712687
0.234066 0.261910 0.706124
0.250526 0.291786 0.711127
0.310360 0.251143 0.716436
0.258940 0.294326 0.706285
0.278557 0.220603 0.708432
0.257894 0.222320 0.709206
0.235898 0.246128 0.706387
0.242261 0.283777 0.710083
0.241428 0.233666 0.711678
0.234754 0.245629 0.715373
0.302157 0.282923 0.716251
0.254460 0.293735 0.713082
0.236464 0.274408 0.714721
0.308311 0.272163 0.708224
0.246868 0.291530 0.714728
0.280657 0.220402 0.715558
0.301451 0.231182 0.713948
0.233052 0.258213 0.712399
0.250792 0.291813 0.716183
0.271193 0.220619 0.713978
0.235022 0.242352 0.718257
0.234374 0.249391 0.710710
0.234477 0.270149 0.715806
0.284617 0.295079 0.717576
0.295753 0.225720 0.721208
0.268945 0.296548 0.714262
0.258146 0.221876 0.716409
0.238444 0.278346 0.714248
0.238886 0.236628 0.714889
0.305612 0.238378 0.718610
0.309958 0.266827 0.720718
0.269602 0.221765 0.718919
0.308901 0.244621 0.717089
0.299455 0.229280 0.727546
0.236731 0.238187 0.721731
0.302772 0.234088 0.723539
0.309368 0.248727 0.727471
0.263300 0.221575 0.716251
0.285623 0.222361 0.719659
0.290473 0.223235 0.713900
0.276513 0.296628 0.713392
0.310251 0.253823 0.723701
0.261162 0.295807 0.717292
0.247998 0.226123 0.717372
0.239639 0.234126 0.719332
0.232576 0.251451 0.719723
0.252129 0.292188 0.720085
0.253391 0.223115 0.717986
0.307214 0.274375 0.725882
0.239733 0.281887 0.719591
0.243140 0.229897 0.723791
0.233374 0.268871 0.721489
0.235800 0.276036 0.725374
0.303529 0.280957 0.723339
0.281300 0.296333 0.724057
0.243910 0.286983 0.715812
0.256592 0.294281 0.718027
0.233458 0.245880 0.724325
0.307988 0.244162 0.727313
0.264966 0.296935 0.722455
0.310057 0.262381 0.726524
0.292233 0.291606 0.720720
0.278307 0.222116 0.723349
0.232193 0.263702 0.723582
0.239356 0.281133 0.728297
0.248320 0.225687 0.728340
0.304998 0.238483 0.728388
0.305219 0.277032 0.731448
0.252778 0.222665 0.725108
0.253824 0.223546 0.730675
0.261960 0.222546 0.725530
0.301509 0.233327 0.731243
0.235587 0.241420 0.727832
0.233416 0.269217 0.726703
0.250189 0.291144 0.727041
0.256711 0.294169 0.728572
0.290913 0.223609 0.727270
0.233671 0.249626 0.729307
0.308951 0.268924 0.730033
0.246264 0.288307 0.728915
0.261644 0.295884 0.727319
0.289141 0.223442 0.731427
0.296531 0.288122 0.729228
0.275429 0.222805 0.729565
0.295181 0.225844 0.731694
0.239047 0.234926 0.727524
0.236550 0.244571 0.731942
0.269097 0.222789 0.726392
0.309059 0.255992 0.733316
0.232411 0.257810 0.728942
0.301728 0.282559 0.731224
0.287607 0.293757 0.727298
0.307677 0.268315 0.733732
0.243433 0.284150 0.731426
0.268188 0.296015 0.732261
0.290844 0.226662 0.735853
0.304591 0.242482 0.735873
0.235560 0.252935 0.733233
0.307519 0.244504 0.732046
0.238156 0.274225 0.732555
0.252965 0.291191 0.731099
0.286183 0.293215 0.732244
0.278084 0.296234 0.730128
0.298900 0.232248 0.735432
0.240899 0.234878 0.731044
0.234940 0.265758 0.732069
0.287413 0.222984 0.730479
0.305374 0.270527 0.736788
0.291601 0.291001 0.731672
0.276011 0.222636 0.735735
0.267631 0.223532 0.736865
0.239824 0.243657 0.735254
0.294484 0.288008 0.734252
0.261535 0.292416 0.734946
0.248541 0.227808 0.732290
0.251342 0.287529 0.734472
0.301045 0.279489 0.736428
0.267295 0.291844 0.737014
0.277942 0.293714 0.735219
0.262026 0.223486 0.735204
0.255245 0.225701 0.734771
0.299974 0.240467 0.739115
0.305880 0.253079 0.738310
0.247058 0.280098 0.737340
0.282993 0.223832 0.735931
0.237582 0.265814 0.735082
0.241628 0.273532 0.736134
0.244707 0.236231 0.735779
0.306068 0.262997 0.737852
0.256801 0.229876 0.738193
0.291353 0.234714 0.741523
0.285203 0.290791 0.736422
0.251794 0.238361 0.739301
0.246714 0.242816 0.738633
0.275894 0.231675 0.741161
0.282837 0.235306 0.742380
0.247859 0.273896 0.739174
0.256476 0.282141 0.739489
0.263061 0.233136 0.740576
0.244343 0.264359 0.738922
0.298472 0.271105 0.741410
0.260053 0.238535 0.741379
0.252460 0.245394 0.740979
0.296920 0.264080 0.742804
0.297984 0.249861 0.742173
0.246079 0.251420 0.739528
0.288095 0.284643 0.740055
0.263272 0.284593 0.740150
0.276711 0.286259 0.740610
0.265281 0.240616 0.742707
0.294129 0.242123 0.742241
0.286802 0.279836 0.741928
0.275456 0.241090 0.743660
0.252188 0.267657 0.741347
0.260199 0.276790 0.741728
0.268655 0.279962 0.741932
0.291258 0.250223 0.743535
0.262521 0.269010 0.745158
0.281676 0.245475 0.744546
0.282242 0.277276 0.742763
0.285162 0.254001 0.744543
0.288931 0.263309 0.743994
0.264602 0.246769 0.746117
0.256758 0.251390 0.743411
0.281726 0.263343 0.745497
0.274630 0.248031 0.748612
0.278999 0.252462 0.747928
0.275866 0.273140 0.743845
0.258218 0.263950 0.744970
0.274834 0.267117 0.747272
0.259099 0.253878 0.748018
0.264757 0.248410 0.750442
0.277626 0.261468 0.750700
0.260044 0.264052 0.748551
0.271508 0.267115 0.750840
0.277272 0.254509 0.753135
0.271298 0.248849 0.756919
0.260097 0.252713 0.754432
0.271356 0.266243 0.755174
0.259492 0.261690 0.754325
0.276811 0.260456 0.756803
0.276031 0.252308 0.755981
0.263533 0.265697 0.754423
0.263779 0.249678 0.761011
0.275849 0.260296 0.762451
0.274904 0.253277 0.762941
0.260268 0.262154 0.761354
0.264863 0.265044 0.760704
0.259495 0.254714 0.761870
0.270814 0.249803 0.762940
0.266559 0.256454 0.763028
0.268481 0.259127 0.763120
0.271506 0.265148 0.762548
0.269494 0.263887 0.765117
0.266009 0.252604 0.763810
0.272923 0.256504 0.763254
3 15 35 36
3 36 35 66
3 35 15 66
3 83 88 97
3 365 333 384
3 208 223 268
3 208 268 284
3 501 496 526
3 363 339 378
3 208 174 223
3 365 383 388
3 327 333 358
3 434 438 475
3 434 421 438
3 427 434 475
3 427 421 434
3 421 431 438
3 333 327 384
3 239 264 279
3 383 365 384
3 371 383 384
3 198 188 215
3 333 365 388
3 358 333 388
3 188 187 215
3 168 162 206
3 446 418 467
3 311 327 358
3 421 402 431
3 405 402 421
3 201 215 219
3 201 198 215
3 279 290 310
3 174 208 216
3 252 297 324
3 49 0 55
3 0 1 5
3 1 0 25
3 25 0 49
3 10 70 76
3 8 2 10
3 2 8 40
3 8 10 39
3 39 10 76
3 289 279 310
3 204 193 217
3 83 24 88
3 432 415 447
3 303 315 324
3 419 429 440
3 83 97 98
3 97 88 130
3 88 111 130
3 209 174 216
3 101 132 139
3 279 264 290
3 488 485 489
3 489 485 534
3 610 611 615
3 60 4 68
3 4 5 6
3 6 5 21
3 483 471 493
3 456 478 518
3 504 501 515
3 496 501 504
3 165 141 179
3 521 511 528
3 321 331 360
3 438 431 476
3 466 438 476
3 383 371 398
3 164 133 173
3 588 577 593
3 130 111 142
3 239 215 264
3 348 322 358
3 348 358 388
3 326 322 348
3 366 403 408
3 327 371 384
3 296 273 318
3 169 188 198
3 169 198 201
3 611 607 613
3 607 612 613
3 612 611 613
3 373 372 394
3 341 345 367
3 496 459 526
3 101 110 132
3 10 57 70
3 239 279 289
3 510 487 536
3 277 300 338
3 216 208 228
3 228 208 284
3 599 593 602
3 605 596 609
3 605 609 615
3 604 605 615
3 601 596 605
3 330 350 359
3 603 608 614
3 608 610 614
3 231 211 250
3 88 77 111
3 162 167 206
3 300 309 338
3 425 418 446
3 239 289 293
3 552 553 562
3 30 22 43
3 186 201 222
3 186 222 223
3 56 61 64
3 609 603 614
3 596 603 609
3 609 610 615
3 610 609 614
3 448 454 464
3 611 612 615
3 612 604 615
3 598 600 612
3 602 598 612
3 607 602 612
3 600 604 612
3 494 495 520
3 324 315 339
3 454 492 505
3 592 595 600
3 11 86 109
3 11 12 44
3 11 44 86
3 167 205 206
3 67 72 73
3 114 115 136
3 20 37 72
3 489 534 540
3 310 311 358
3 322 310 358
3 324 339 363
3 478 486 518
3 426 411 441
3 15 58 66
3 81 79 112
3 396 400 427
3 400 405 427
3 143 144 161
3 388 383 425
3 499 494 520
3 499 520 535
3 151 176 191
3 396 350 400
3 339 347 378
3 527 512 548
3 209 216 217
3 193 209 217
3 321 302 331
3 302 296 331
3 413 449 452
3 45 36 84
3 23 48 116
3 23 14 48
3 219 215 239
3 55 4 60
3 0 4 55
3 4 0 5
3 406 373 459
3 297 293 324
3 293 303 324
3 10 11 57
3 10 2 11
3 137 177 210
3 310 290 311
3 290 307 311
3 383 398 425
3 455 453 491
3 486 455 491
3 122 162 168
3 205 230 233
3 360 370 390
3 610 607 611
3 238 225 244
3 432 447 469
3 336 343 372
3 301 336 372
3 428 448 464
3 590 588 593
3 363 378 394
3 252 324 336
3 336 324 343
3 343 324 363
3 174 183 223
3 405 421 427
3 103 89 119
3 171 164 172
3 137 148 177
3 148 166 177
3 446 467 490
3 521 528 551
3 211 246 250
3 418 463 467
3 179 141 191
3 67 73 94
3 528 532 551
3 551 532 566
3 418 399 463
3 181 147 182
3 133 164 171
3 15 36 45
3 19 15 45
3 19 20 46
3 20 19 45
3 252 284 297
3 42 52 62
3 42 41 52
3 92 193 204
3 533 514 537
3 311 307 327
3 139 132 193
3 151 81 176
3 589 584 592
3 511 521 538
3 538 521 551
3 471 472 493
3 493 472 525
3 283 273 296
3 136 154 155
3 407 366 408
3 488 489 490
3 508 518 542
3 508 456 518
3 456 452 478
3 487 512 527
3 168 206 234
3 558 561 569
3 76 70 114
3 114 70 115
3 230 204 243
3 204 217 243
3 603 597 608
3 408 419 448
3 428 408 448
3 49 55 103
3 60 68 89
3 437 471 483
3 364 354 403
3 367 345 414
3 277 263 300
3 606 602 607
3 599 602 606
3 552 547 553
3 78 106 120
3 472 484 519
3 173 189 203
3 164 173 203
3 463 485 488
3 226 238 260
3 532 510 536
3 532 536 566
3 536 560 566
3 536 527 560
3 487 527 536
3 527 548 560
3 79 75 112
3 373 394 459
3 205 204 230
3 419 426 429
3 429 426 441
3 419 440 454
3 448 419 454
3 360 331 370
3 330 321 360
3 600 595 601
3 600 601 604
3 604 601 605
3 591 590 597
3 590 593 599
3 597 590 599
3 414 415 432
3 415 427 447
3 313 295 330
3 29 51 75
3 29 28 51
3 28 29 47
3 28 47 61
3 89 104 119
3 470 464 505
3 464 454 505
3 429 441 465
3 441 437 465
3 429 465 477
3 156 211 231
3 451 439 457
3 439 417 457
3 165 179 214
3 272 295 313
3 359 350 396
3 497 509 517
3 133 134 173
3 37 20 45
3 37 45 84
3 20 38 46
3 27 20 72
3 20 27 38
3 408 403 419
3 91 78 120
3 65 78 91
3 390 402 405
3 390 370 402
3 400 390 405
3 491 453 504
3 301 372 373
3 372 343 394
3 520 495 533
3 494 466 495
3 458 435 482
3 296 318 342
3 331 296 342
3 273 267 318
3 147 100 182
3 589 592 594
3 593 577 594
3 593 594 602
3 586 585 595
3 473 487 510
3 506 497 517
3 341 329 345
3 354 341 367
3 439 451 482
3 435 439 482
3 264 232 290
3 232 269 290
3 72 37 92
3 37 84 92
3 312 299 328
3 562 553 565
3 350 360 390
3 350 390 400
3 561 552 562
3 343 363 394
3 172 164 199
3 331 342 370
3 114 136 155
3 136 147 154
3 136 115 147
3 123 114 155
3 350 330 360
3 505 492 506
3 58 15 82
3 15 9 82
3 9 15 19
3 569 561 583
3 344 374 398
3 371 344 398
3 344 337 374
3 231 250 275
3 286 317 323
3 56 28 61
3 64 69 105
3 64 61 69
3 369 396 409
3 366 364 403
3 337 364 366
3 394 435 458
3 533 537 567
3 142 111 143
3 385 413 452
3 224 233 263
3 156 197 211
3 143 128 144
3 161 144 170
3 190 154 213
3 155 154 190
3 573 577 588
3 52 79 81
3 81 112 176
3 592 586 595
3 472 469 484
3 225 234 244
3 486 516 518
3 444 406 459
3 411 437 441
3 452 449 478
3 478 449 486
3 413 389 449
3 495 514 533
3 537 514 538
3 328 354 364
3 584 586 592
3 226 225 238
3 100 137 210
3 154 147 181
3 154 181 213
3 444 496 504
3 504 515 523
3 578 585 586
3 554 558 569
3 558 552 561
3 190 213 245
3 557 567 574
3 203 189 258
3 492 477 497
3 492 497 506
3 463 464 470
3 578 572 585
3 299 298 328
3 595 585 601
3 585 596 601
3 111 77 143
3 141 151 191
3 191 176 225
3 587 584 589
3 407 408 428
3 546 543 556
3 556 543 557
3 323 317 368
3 556 557 574
3 415 409 427
3 409 396 427
3 369 359 396
3 120 106 135
3 179 191 207
3 207 191 226
3 512 508 548
3 608 606 610
3 606 607 610
3 599 606 608
3 597 599 608
3 211 197 214
3 211 214 246
3 116 145 149
3 48 71 116
3 14 33 48
3 14 22 33
3 160 187 188
3 169 160 188
3 261 273 283
3 585 582 591
3 206 205 233
3 233 230 243
3 233 243 256
3 564 570 576
3 563 564 576
3 546 556 559
3 451 457 490
3 242 226 260
3 191 225 226
3 557 533 567
3 574 567 575
3 282 283 302
3 50 67 94
3 403 354 426
3 171 172 196
3 234 224 263
3 312 328 364
3 285 299 312
3 304 285 312
3 307 270 319
3 307 319 327
3 368 355 379
3 245 249 266
3 266 249 282
3 103 119 133
3 411 420 437
3 497 477 509
3 477 465 509
3 517 509 525
3 540 534 549
3 545 519 546
3 286 316 317
3 287 286 323
3 315 326 347
3 339 315 347
3 315 303 326
3 303 322 326
3 583 588 590
3 199 164 203
3 295 321 330
3 295 302 321
3 149 145 156
3 125 116 149
3 539 489 540
3 490 489 539
3 577 589 594
3 82 83 98
3 594 598 602
3 327 344 371
3 458 482 526
3 459 458 526
3 245 266 272
3 202 180 229
3 180 161 229
3 202 229 254
3 187 180 202
3 221 185 231
3 221 231 275
3 547 531 553
3 524 531 547
3 317 316 355
3 317 355 368
3 417 425 457
3 425 446 457
3 199 203 258
3 196 172 240
3 172 199 240
3 398 374 407
3 465 483 509
3 465 437 483
3 577 575 587
3 574 575 577
3 577 587 589
3 189 212 258
3 212 248 258
3 212 194 241
3 212 241 248
3 575 568 579
3 575 579 587
3 579 581 587
3 581 584 587
3 565 573 583
3 583 573 588
3 565 559 573
3 559 556 573
3 573 556 574
3 573 574 577
3 74 95 106
3 106 95 135
3 334 262 353
3 262 335 353
3 267 288 334
3 288 262 334
3 18 40 53
3 53 40 91
3 566 560 571
3 579 563 581
3 244 234 259
3 259 234 263
3 314 357 377
3 351 314 377
3 351 377 397
3 386 392 443
3 74 63 95
3 95 63 99
3 272 266 295
3 266 282 295
3 295 282 302
3 582 590 591
3 207 226 242
3 214 242 246
3 237 221 275
3 318 267 334
3 308 272 313
3 197 165 214
3 580 578 586
3 69 80 105
3 141 62 151
3 32 62 121
3 263 257 300
3 257 256 309
3 300 257 309
3 118 131 152
3 118 98 131
3 283 296 302
3 269 270 307
3 270 304 319
3 394 378 424
3 378 347 424
3 349 301 373
3 308 313 369
3 110 66 118
3 58 98 118
3 66 58 118
3 152 131 183
3 215 232 264
3 598 592 600
3 594 592 598
3 570 555 576
3 77 102 143
3 487 468 498
3 487 498 512
3 3 25 77
3 3 1 25
3 398 399 418
3 398 418 425
3 182 100 210
3 36 66 110
3 385 362 413
3 362 389 413
3 116 71 145
3 185 149 231
3 149 156 231
3 39 76 90
3 462 445 479
3 572 569 585
3 569 582 585
3 206 224 234
3 224 206 233
3 513 535 543
3 543 535 557
3 513 499 535
3 275 262 288
3 281 298 299
3 337 312 364
3 473 468 487
3 217 228 253
3 243 217 253
3 217 216 228
3 17 16 26
3 1 16 17
3 17 26 63
3 16 9 26
3 3 77 88
3 24 3 88
3 86 100 109
3 248 241 278
3 40 65 91
3 40 7 65
3 214 207 242
3 179 207 214
3 149 185 195
3 258 248 265
3 240 199 281
3 389 436 449
3 581 580 584
3 584 580 586
3 505 506 524
3 332 353 381
3 332 334 353
3 290 269 307
3 381 353 387
3 498 508 512
3 354 411 426
3 238 244 287
3 126 120 135
3 411 367 420
3 48 33 71
3 94 122 150
3 150 122 168
3 94 73 122
3 96 94 150
3 582 583 590
3 309 280 340
3 256 280 309
3 89 68 104
3 520 533 535
3 328 298 329
3 186 183 201
3 183 186 223
3 524 506 531
3 353 335 387
3 325 395 433
3 325 323 395
3 401 325 433
3 435 424 439
3 394 424 435
3 468 450 498
3 450 480 498
3 498 480 508
3 62 81 151
3 62 52 81
3 4 39 68
3 4 8 39
3 4 6 8
3 285 281 299
3 122 73 162
3 555 572 578
3 576 578 580
3 576 555 578
3 260 238 287
3 12 2 18
3 11 2 12
3 70 57 115
3 29 75 79
3 438 466 475
3 503 482 507
3 482 503 526
3 503 507 530
3 482 451 507
3 467 463 488
3 112 150 175
3 112 158 176
3 158 175 184
3 158 112 175
3 175 150 184
3 113 120 126
3 100 86 137
3 31 18 54
3 18 53 54
3 265 248 278
3 555 554 572
3 199 258 281
3 112 96 150
3 133 119 134
3 52 29 79
3 29 41 47
3 41 29 52
3 202 254 270
3 57 11 109
3 57 109 115
3 109 100 115
3 419 403 426
3 107 105 129
3 449 455 486
3 491 504 523
3 71 33 121
3 338 309 362
3 309 340 362
3 39 90 104
3 68 39 104
3 534 524 547
3 538 551 568
3 457 446 490
3 82 34 83
3 9 34 82
3 480 461 508
3 461 456 508
3 508 542 548
3 560 548 563
3 294 278 308
3 278 272 308
3 379 355 404
3 545 546 559
3 76 114 123
3 90 76 123
3 484 499 513
3 484 475 499
3 475 494 499
3 469 475 484
3 523 515 550
3 125 149 195
3 12 18 31
3 518 516 542
3 462 479 500
3 476 462 500
3 495 476 500
3 466 476 495
3 500 479 514
3 495 500 514
3 332 318 334
3 170 171 196
3 585 591 596
3 7 6 21
3 338 362 385
3 338 385 404
3 259 277 316
3 560 563 571
3 571 563 579
3 399 398 407
3 449 436 455
3 240 281 285
3 192 240 285
3 108 113 126
3 451 490 507
3 362 340 389
3 340 349 389
3 26 19 59
3 327 319 344
3 144 128 171
3 516 523 541
3 516 491 523
3 486 491 516
3 424 417 439
3 182 210 235
3 218 182 235
3 474 511 522
3 414 432 442
3 92 139 193
3 193 132 209
3 178 92 204
3 475 466 494
3 128 133 171
3 128 103 133
3 170 144 171
3 54 53 108
3 108 53 113
3 432 469 472
3 442 432 472
3 367 414 420
3 469 447 475
3 447 427 475
3 145 127 156
3 99 85 107
3 99 107 117
3 85 64 107
3 506 517 531
3 374 366 407
3 337 366 374
3 549 547 552
3 534 547 549
3 514 522 538
3 161 170 229
3 453 444 504
3 354 367 411
3 117 107 129
3 160 161 180
3 160 180 187
3 522 511 538
3 71 127 145
3 71 121 127
3 318 332 342
3 342 332 416
3 332 381 416
3 412 473 510
3 467 488 490
3 541 523 550
3 550 555 570
3 596 591 603
3 591 597 603
3 304 312 337
3 529 530 554
3 529 503 530
3 19 46 59
3 184 168 234
3 50 94 96
3 549 552 558
3 102 103 128
3 553 531 565
3 399 407 428
3 399 428 463
3 463 428 464
3 150 168 184
3 328 329 354
3 329 341 354
3 32 30 42
3 32 42 62
3 463 470 485
3 304 337 344
3 167 204 205
3 167 178 204
3 95 117 135
3 95 99 117
3 436 406 444
3 25 49 102
3 77 25 102
3 53 91 113
3 113 91 120
3 235 255 261
3 115 100 147
3 61 47 69
3 102 128 143
3 567 537 568
3 537 538 568
3 567 568 575
3 92 84 139
3 176 158 225
3 119 104 134
3 460 443 474
3 117 129 135
3 18 2 40
3 80 54 108
3 31 54 80
3 75 50 96
3 51 50 75
3 531 517 565
3 13 14 23
3 23 116 125
3 87 23 125
3 13 23 87
3 471 442 472
3 437 442 471
3 75 96 112
3 218 235 261
3 562 565 583
3 59 85 99
3 452 456 461
3 422 452 461
3 404 385 452
3 422 404 452
3 450 422 461
3 319 304 344
3 105 80 108
3 105 108 129
3 102 49 103
3 535 533 557
3 183 131 201
3 7 21 74
3 65 7 74
3 258 265 298
3 281 258 298
3 416 445 462
3 8 7 40
3 6 7 8
3 563 542 564
3 548 542 563
3 9 19 26
3 58 82 98
3 244 259 316
3 286 244 316
3 244 286 287
3 129 126 135
3 517 545 565
3 517 525 545
3 329 320 345
3 545 559 565
3 444 459 496
3 394 458 459
3 21 17 63
3 21 63 74
3 237 275 288
3 259 263 277
3 554 569 572
3 554 530 558
3 166 148 195
3 582 569 583
3 194 220 241
3 194 190 220
3 220 190 245
3 64 105 107
3 298 320 329
3 445 416 460
3 108 126 129
3 561 562 583
3 265 278 294
3 437 420 442
3 420 414 442
3 357 325 401
3 249 200 282
3 282 200 283
3 181 200 213
3 298 294 320
3 265 294 298
3 377 357 401
3 63 26 99
3 26 59 99
3 43 31 80
3 156 127 165
3 156 165 197
3 276 301 349
3 340 276 349
3 200 218 283
3 218 261 283
3 576 580 581
3 563 576 581
3 379 404 422
3 450 461 480
3 158 184 225
3 225 184 234
3 514 479 522
3 379 422 450
3 275 250 291
3 250 274 291
3 192 196 240
3 270 254 285
3 254 192 285
3 270 285 304
3 479 474 522
3 416 381 460
3 381 387 460
3 13 31 43
3 445 460 479
3 460 474 479
3 98 153 163
3 131 98 163
3 131 163 201
3 153 138 163
3 163 138 201
3 138 153 169
3 138 169 201
3 153 160 169
3 98 97 153
3 153 142 160
3 97 130 153
3 130 142 153
3 284 268 297
3 268 247 297
3 222 247 268
3 247 293 297
3 222 219 247
3 219 239 247
3 247 239 293
3 223 222 268
3 201 219 222
3 293 251 303
3 303 251 306
3 289 251 293
3 251 289 306
3 303 306 322
3 306 310 322
3 306 289 310
3 382 393 417
3 382 348 393
3 326 348 382
3 348 388 393
3 417 393 425
3 393 388 425
3 526 503 529
3 526 529 544
3 544 529 554
3 501 526 544
3 544 554 555
3 16 1 24
3 1 3 24
3 5 1 17
3 5 17 21
3 22 32 33
3 22 30 32
3 33 32 121
3 14 13 22
3 22 13 43
3 148 87 195
3 87 125 195
3 12 13 87
3 13 12 31
3 44 12 87
3 44 87 148
3 86 44 137
3 137 44 148
3 84 36 139
3 36 101 139
3 101 36 110
3 127 121 165
3 121 141 165
3 121 62 141
3 170 192 229
3 192 170 196
3 229 192 254
3 245 213 249
3 213 200 249
3 241 220 272
3 220 245 272
3 241 272 278
3 261 255 273
3 255 267 273
3 233 256 257
3 233 257 263
3 256 243 280
3 260 323 325
3 260 287 323
3 355 277 404
3 277 338 404
3 316 277 355
3 370 342 423
3 342 416 423
3 423 416 462
3 402 370 423
3 402 423 431
3 423 462 476
3 431 423 476
3 349 373 406
3 410 386 443
3 410 443 460
3 387 386 410
3 387 410 460
3 436 444 453
3 436 453 455
3 483 493 509
3 509 493 525
3 515 544 550
3 550 544 555
3 515 501 544
3 530 539 549
3 530 549 558
3 539 540 549
3 530 507 539
3 507 490 539
3 551 566 568
3 347 326 382
3 347 382 417
3 347 417 424
3 55 60 103
3 60 89 103
3 181 182 218
3 200 181 218
3 454 440 492
3 440 477 492
3 440 429 477
3 65 74 78
3 78 74 106
3 160 142 161
3 142 143 161
3 313 359 369
3 313 330 359
3 345 320 380
3 320 356 380
3 345 380 414
3 380 356 391
3 380 391 414
3 320 294 356
3 391 356 409
3 356 369 409
3 414 391 415
3 391 409 415
3 294 308 356
3 356 308 369
3 472 519 525
3 525 519 545
3 568 566 571
3 568 571 579
3 392 412 481
3 443 392 511
3 392 481 511
3 474 443 511
3 528 502 532
3 502 510 532
3 481 502 528
3 511 481 528
3 502 412 510
3 481 412 502
3 195 185 221
3 349 375 389
3 389 375 436
3 375 349 406
3 375 406 436
3 132 118 152
3 110 118 132
3 376 346 392
3 386 376 392
3 392 346 397
3 34 24 83
3 9 16 24
3 9 24 34
3 73 72 93
3 72 92 93
3 93 92 140
3 93 140 167
3 167 140 178
3 140 92 178
3 73 93 162
3 162 93 167
3 250 246 274
3 274 246 292
3 246 242 292
3 433 395 450
3 395 379 450
3 323 368 395
3 368 379 395
3 401 468 473
3 377 401 473
3 430 377 473
3 397 377 430
3 412 430 473
3 412 397 430
3 392 397 412
3 187 202 269
3 215 187 232
3 232 187 269
3 269 202 270
3 314 271 357
3 271 325 357
3 516 541 564
3 564 541 570
3 541 550 570
3 542 516 564
3 242 260 271
3 242 271 292
3 30 43 47
3 47 43 69
3 69 43 80
3 41 30 47
3 30 41 42
3 485 470 505
3 485 505 524
3 485 524 534
3 262 275 335
3 275 291 305
3 275 305 335
3 484 513 519
3 519 513 546
3 513 543 546
3 27 28 38
3 28 27 51
3 38 28 56
3 27 50 51
3 50 27 67
3 67 27 72
3 174 152 183
3 132 152 174
3 132 174 209
3 46 38 56
3 46 56 59
3 59 64 85
3 59 56 64
3 195 221 237
3 166 195 227
3 177 166 227
3 227 195 237
3 227 237 288
3 267 236 288
3 236 227 288
3 255 236 267
3 177 227 236
3 177 236 255
3 210 177 255
3 235 210 255
3 271 260 325
3 292 271 314
3 291 274 346
3 305 291 346
3 346 274 352
3 274 292 352
3 292 314 352
3 346 352 397
3 314 351 352
3 352 351 397
3 305 346 376
3 361 305 376
3 361 376 386
3 335 305 361
3 335 361 387
3 361 386 387
3 189 194 212
3 189 157 194
3 157 159 194
3 157 124 159
3 124 146 159
3 173 157 189
3 134 124 157
3 134 157 173
3 104 124 134
3 124 123 146
3 104 90 124
3 90 123 124
3 146 123 155
3 146 155 159
3 159 190 194
3 159 155 190
3 228 252 336
3 253 228 336
3 301 253 336
3 276 253 301
3 280 276 340
3 252 228 284
3 243 253 276
3 243 276 280
3 433 450 468
3 401 433 468
